<svg width="60" height="61" viewBox="0 0 60 61" fill="none" xmlns="http://www.w3.org/2000/svg">
<g id="icons8-calendar 1">
<path id="Vector" d="M30.075 52.6749C42.3357 52.6749 52.275 42.7356 52.275 30.4749C52.275 18.2142 42.3357 8.2749 30.075 8.2749C17.8143 8.2749 7.875 18.2142 7.875 30.4749C7.875 42.7356 17.8143 52.6749 30.075 52.6749Z" fill="#CEE1F4"/>
<path id="Vector_2" d="M7.8748 19.0748C8.53755 19.0748 9.0748 18.5375 9.0748 17.8748C9.0748 17.2121 8.53755 16.6748 7.8748 16.6748C7.21206 16.6748 6.6748 17.2121 6.6748 17.8748C6.6748 18.5375 7.21206 19.0748 7.8748 19.0748Z" fill="#78A0CF"/>
<path id="Vector_3" d="M46.2748 8.8748C46.6062 8.8748 46.8748 8.60618 46.8748 8.2748C46.8748 7.94343 46.6062 7.6748 46.2748 7.6748C45.9434 7.6748 45.6748 7.94343 45.6748 8.2748C45.6748 8.60618 45.9434 8.8748 46.2748 8.8748Z" fill="#F1BC19"/>
<path id="Vector_4" d="M49.8751 11.8747C51.2006 11.8747 52.2751 10.8002 52.2751 9.47471C52.2751 8.14922 51.2006 7.07471 49.8751 7.07471C48.5496 7.07471 47.4751 8.14922 47.4751 9.47471C47.4751 10.8002 48.5496 11.8747 49.8751 11.8747Z" fill="#F1BC19"/>
<path id="Vector_5" d="M52.2752 16.0748C52.9379 16.0748 53.4752 15.5375 53.4752 14.8748C53.4752 14.2121 52.9379 13.6748 52.2752 13.6748C51.6125 13.6748 51.0752 14.2121 51.0752 14.8748C51.0752 15.5375 51.6125 16.0748 52.2752 16.0748Z" fill="#78A0CF"/>
<path id="Vector_6" d="M48.6751 47.2748C49.3378 47.2748 49.8751 46.7375 49.8751 46.0748C49.8751 45.412 49.3378 44.8748 48.6751 44.8748C48.0124 44.8748 47.4751 45.412 47.4751 46.0748C47.4751 46.7375 48.0124 47.2748 48.6751 47.2748Z" fill="#FBCD59"/>
<path id="Vector_7" d="M9.0748 42.4748C10.4003 42.4748 11.4748 41.4003 11.4748 40.0748C11.4748 38.7493 10.4003 37.6748 9.0748 37.6748C7.74932 37.6748 6.6748 38.7493 6.6748 40.0748C6.6748 41.4003 7.74932 42.4748 9.0748 42.4748Z" fill="#FBCD59"/>
<path id="Vector_8" d="M15.075 53.8749C15.7377 53.8749 16.275 53.3376 16.275 52.6749C16.275 52.0121 15.7377 51.4749 15.075 51.4749C14.4123 51.4749 13.875 52.0121 13.875 52.6749C13.875 53.3376 14.4123 53.8749 15.075 53.8749Z" fill="#78A0CF"/>
<path id="Vector_9" d="M49.2748 23.8748C49.6062 23.8748 49.8748 23.6062 49.8748 23.2748C49.8748 22.9434 49.6062 22.6748 49.2748 22.6748C48.9434 22.6748 48.6748 22.9434 48.6748 23.2748C48.6748 23.6062 48.9434 23.8748 49.2748 23.8748Z" fill="white"/>
<path id="Vector_10" d="M15.6752 45.4749C16.0066 45.4749 16.2752 45.2063 16.2752 44.8749C16.2752 44.5435 16.0066 44.2749 15.6752 44.2749C15.3438 44.2749 15.0752 44.5435 15.0752 44.8749C15.0752 45.2063 15.3438 45.4749 15.6752 45.4749Z" fill="#F1BC19"/>
<g id="Group">
<path id="Vector_11" d="M40.7257 42.8979H18.6745C17.4055 42.8979 16.3765 41.8689 16.3765 40.5999V19.7997C16.3765 18.5307 17.4055 17.5017 18.6745 17.5017H40.7257C41.9947 17.5017 43.0237 18.5307 43.0237 19.7997V40.5999C43.0237 41.8695 41.9947 42.8979 40.7257 42.8979Z" fill="#FDFCEF"/>
<path id="Vector_12" d="M42.6001 24.1617V20.2983C42.6001 18.9735 41.5675 17.9001 40.2937 17.9001H19.0105C17.7367 17.9001 16.7041 18.9735 16.7041 20.2983V24.1617H42.6001Z" fill="#F1BC19"/>
<path id="Vector_13" d="M20.004 22.3618C20.5011 22.3618 20.904 21.9588 20.904 21.4618C20.904 20.9647 20.5011 20.5618 20.004 20.5618C19.5069 20.5618 19.104 20.9647 19.104 21.4618C19.104 21.9588 19.5069 22.3618 20.004 22.3618Z" fill="#FDFCEF"/>
<path id="Vector_14" d="M20.0047 22.6617C19.3429 22.6617 18.8047 22.1235 18.8047 21.4617C18.8047 20.7999 19.3429 20.2617 20.0047 20.2617C20.6665 20.2617 21.2047 20.7999 21.2047 21.4617C21.2047 22.1235 20.6659 22.6617 20.0047 22.6617ZM20.0047 20.8617C19.6735 20.8617 19.4047 21.1311 19.4047 21.4617C19.4047 21.7923 19.6735 22.0617 20.0047 22.0617C20.3359 22.0617 20.6047 21.7923 20.6047 21.4617C20.6047 21.1311 20.3359 20.8617 20.0047 20.8617Z" fill="#472B29"/>
<path id="Vector_15" d="M39.2042 22.3618C39.7013 22.3618 40.1042 21.9588 40.1042 21.4618C40.1042 20.9647 39.7013 20.5618 39.2042 20.5618C38.7071 20.5618 38.3042 20.9647 38.3042 21.4618C38.3042 21.9588 38.7071 22.3618 39.2042 22.3618Z" fill="#FDFCEF"/>
<path id="Vector_16" d="M39.2049 22.6617C38.5431 22.6617 38.0049 22.1235 38.0049 21.4617C38.0049 20.7999 38.5431 20.2617 39.2049 20.2617C39.8667 20.2617 40.4049 20.7999 40.4049 21.4617C40.4049 22.1235 39.8661 22.6617 39.2049 22.6617ZM39.2049 20.8617C38.8737 20.8617 38.6049 21.1311 38.6049 21.4617C38.6049 21.7923 38.8737 22.0617 39.2049 22.0617C39.5361 22.0617 39.8049 21.7923 39.8049 21.4617C39.8049 21.1311 39.5361 20.8617 39.2049 20.8617Z" fill="#472B29"/>
<path id="Vector_17" d="M23.7004 19.1001C23.5348 19.1001 23.4004 18.9657 23.4004 18.8001V16.4001C23.4004 16.2345 23.5348 16.1001 23.7004 16.1001C23.866 16.1001 24.0004 16.2345 24.0004 16.4001V18.8001C24.0004 18.9657 23.866 19.1001 23.7004 19.1001Z" fill="#472B29"/>
<path id="Vector_18" d="M20.7004 19.1001C20.5348 19.1001 20.4004 18.9657 20.4004 18.8001V16.4001C20.4004 16.2345 20.5348 16.1001 20.7004 16.1001C20.866 16.1001 21.0004 16.2345 21.0004 16.4001V18.8001C21.0004 18.9657 20.866 19.1001 20.7004 19.1001Z" fill="#472B29"/>
<path id="Vector_19" d="M36.0002 24.5001H16.5002C16.3346 24.5001 16.2002 24.3657 16.2002 24.2001C16.2002 24.0345 16.3346 23.9001 16.5002 23.9001H36.0002C36.1658 23.9001 36.3002 24.0345 36.3002 24.2001C36.3002 24.3657 36.1658 24.5001 36.0002 24.5001Z" fill="#472B29"/>
<path id="Vector_20" d="M38.4004 24.5001H37.2004C37.0348 24.5001 36.9004 24.3657 36.9004 24.2001C36.9004 24.0345 37.0348 23.9001 37.2004 23.9001H38.4004C38.566 23.9001 38.7004 24.0345 38.7004 24.2001C38.7004 24.3657 38.566 24.5001 38.4004 24.5001Z" fill="#472B29"/>
<path id="Vector_21" d="M42.6001 24.5001H39.9001C39.7345 24.5001 39.6001 24.3657 39.6001 24.2001C39.6001 24.0345 39.7345 23.9001 39.9001 23.9001H42.6001C42.7657 23.9001 42.9001 24.0345 42.9001 24.2001C42.9001 24.3657 42.7657 24.5001 42.6001 24.5001Z" fill="#472B29"/>
<path id="Vector_22" d="M26.7004 19.1001C26.5348 19.1001 26.4004 18.9657 26.4004 18.8001V16.4001C26.4004 16.2345 26.5348 16.1001 26.7004 16.1001C26.866 16.1001 27.0004 16.2345 27.0004 16.4001V18.8001C27.0004 18.9657 26.866 19.1001 26.7004 19.1001Z" fill="#472B29"/>
<path id="Vector_23" d="M29.7004 19.1001C29.5348 19.1001 29.4004 18.9657 29.4004 18.8001V16.4001C29.4004 16.2345 29.5348 16.1001 29.7004 16.1001C29.866 16.1001 30.0004 16.2345 30.0004 16.4001V18.8001C30.0004 18.9657 29.866 19.1001 29.7004 19.1001Z" fill="#472B29"/>
<path id="Vector_24" d="M32.7004 19.1001C32.5348 19.1001 32.4004 18.9657 32.4004 18.8001V16.4001C32.4004 16.2345 32.5348 16.1001 32.7004 16.1001C32.866 16.1001 33.0004 16.2345 33.0004 16.4001V18.8001C33.0004 18.9657 32.866 19.1001 32.7004 19.1001Z" fill="#472B29"/>
<path id="Vector_25" d="M35.7004 19.1001C35.5348 19.1001 35.4004 18.9657 35.4004 18.8001V16.4001C35.4004 16.2345 35.5348 16.1001 35.7004 16.1001C35.866 16.1001 36.0004 16.2345 36.0004 16.4001V18.8001C36.0004 18.9657 35.866 19.1001 35.7004 19.1001Z" fill="#472B29"/>
<path id="Vector_26" d="M38.7004 19.1001C38.5348 19.1001 38.4004 18.9657 38.4004 18.8001V16.4001C38.4004 16.2345 38.5348 16.1001 38.7004 16.1001C38.866 16.1001 39.0004 16.2345 39.0004 16.4001V18.8001C39.0004 18.9657 38.866 19.1001 38.7004 19.1001Z" fill="#472B29"/>
<path id="Vector_27" d="M40.9022 18.14C41.7062 18.14 42.3602 18.794 42.3602 19.598V41.402C42.3602 42.206 41.7062 42.86 40.9022 42.86H18.4982C17.6942 42.86 17.0402 42.206 17.0402 41.402V19.598C17.0402 18.794 17.6942 18.14 18.4982 18.14H40.9022ZM40.9022 17.3H18.4982C17.2292 17.3 16.2002 18.329 16.2002 19.598V41.402C16.2002 42.671 17.2292 43.7 18.4982 43.7H40.9022C42.1712 43.7 43.2002 42.671 43.2002 41.402V19.598C43.2002 18.329 42.1712 17.3 40.9022 17.3Z" fill="#472B29"/>
<path id="Vector_28" d="M29.1002 26.6001H26.7002V29.0001H29.1002V26.6001Z" fill="#CBC9BC"/>
<path id="Vector_29" d="M29.1004 29.3H26.7004C26.5348 29.3 26.4004 29.1656 26.4004 29V26.6C26.4004 26.4344 26.5348 26.3 26.7004 26.3H29.1004C29.266 26.3 29.4004 26.4344 29.4004 26.6V29C29.4004 29.1656 29.266 29.3 29.1004 29.3ZM27.0004 28.7H28.8004V26.9H27.0004V28.7Z" fill="#472B29"/>
<path id="Vector_30" d="M32.7003 26.6001H30.3003V29.0001H32.7003V26.6001Z" fill="#CBC9BC"/>
<path id="Vector_31" d="M32.7 29.3H30.3C30.1344 29.3 30 29.1656 30 29V26.6C30 26.4344 30.1344 26.3 30.3 26.3H32.7C32.8656 26.3 33 26.4344 33 26.6V29C33 29.1656 32.8656 29.3 32.7 29.3ZM30.6 28.7H32.4V26.9H30.6V28.7Z" fill="#472B29"/>
<path id="Vector_32" d="M36.3004 26.6001H33.9004V29.0001H36.3004V26.6001Z" fill="#CBC9BC"/>
<path id="Vector_33" d="M36.3001 29.3H33.9001C33.7345 29.3 33.6001 29.1656 33.6001 29V26.6C33.6001 26.4344 33.7345 26.3 33.9001 26.3H36.3001C36.4657 26.3 36.6001 26.4344 36.6001 26.6V29C36.6001 29.1656 36.4657 29.3 36.3001 29.3ZM34.2001 28.7H36.0001V26.9H34.2001V28.7Z" fill="#472B29"/>
<path id="Vector_34" d="M39.9 26.6001H37.5V29.0001H39.9V26.6001Z" fill="#CBC9BC"/>
<path id="Vector_35" d="M39.9002 29.3H37.5002C37.3346 29.3 37.2002 29.1656 37.2002 29V26.6C37.2002 26.4344 37.3346 26.3 37.5002 26.3H39.9002C40.0658 26.3 40.2002 26.4344 40.2002 26.6V29C40.2002 29.1656 40.0658 29.3 39.9002 29.3ZM37.8002 28.7H39.6002V26.9H37.8002V28.7Z" fill="#472B29"/>
<path id="Vector_36" d="M21.9 30.2002H19.5V32.6002H21.9V30.2002Z" fill="#CBC9BC"/>
<path id="Vector_37" d="M21.9002 32.9001H19.5002C19.3346 32.9001 19.2002 32.7657 19.2002 32.6001V30.2001C19.2002 30.0345 19.3346 29.9001 19.5002 29.9001H21.9002C22.0658 29.9001 22.2002 30.0345 22.2002 30.2001V32.6001C22.2002 32.7657 22.0658 32.9001 21.9002 32.9001ZM19.8002 32.3001H21.6002V30.5001H19.8002V32.3001Z" fill="#472B29"/>
<path id="Vector_38" d="M25.5001 30.2002H23.1001V32.6002H25.5001V30.2002Z" fill="#CBC9BC"/>
<path id="Vector_39" d="M25.5003 32.9001H23.1003C22.9347 32.9001 22.8003 32.7657 22.8003 32.6001V30.2001C22.8003 30.0345 22.9347 29.9001 23.1003 29.9001H25.5003C25.6659 29.9001 25.8003 30.0345 25.8003 30.2001V32.6001C25.8003 32.7657 25.6659 32.9001 25.5003 32.9001ZM23.4003 32.3001H25.2003V30.5001H23.4003V32.3001Z" fill="#472B29"/>
<path id="Vector_40" d="M29.1002 30.2002H26.7002V32.6002H29.1002V30.2002Z" fill="#CBC9BC"/>
<path id="Vector_41" d="M29.1004 32.9001H26.7004C26.5348 32.9001 26.4004 32.7657 26.4004 32.6001V30.2001C26.4004 30.0345 26.5348 29.9001 26.7004 29.9001H29.1004C29.266 29.9001 29.4004 30.0345 29.4004 30.2001V32.6001C29.4004 32.7657 29.266 32.9001 29.1004 32.9001ZM27.0004 32.3001H28.8004V30.5001H27.0004V32.3001Z" fill="#472B29"/>
<path id="Vector_42" d="M32.7003 30.2002H30.3003V32.6002H32.7003V30.2002Z" fill="#CBC9BC"/>
<path id="Vector_43" d="M32.7 32.9001H30.3C30.1344 32.9001 30 32.7657 30 32.6001V30.2001C30 30.0345 30.1344 29.9001 30.3 29.9001H32.7C32.8656 29.9001 33 30.0345 33 30.2001V32.6001C33 32.7657 32.8656 32.9001 32.7 32.9001ZM30.6 32.3001H32.4V30.5001H30.6V32.3001Z" fill="#472B29"/>
<path id="Vector_44" d="M36.3004 30.2002H33.9004V32.6002H36.3004V30.2002Z" fill="#CBC9BC"/>
<path id="Vector_45" d="M36.3001 32.9001H33.9001C33.7345 32.9001 33.6001 32.7657 33.6001 32.6001V30.2001C33.6001 30.0345 33.7345 29.9001 33.9001 29.9001H36.3001C36.4657 29.9001 36.6001 30.0345 36.6001 30.2001V32.6001C36.6001 32.7657 36.4657 32.9001 36.3001 32.9001ZM34.2001 32.3001H36.0001V30.5001H34.2001V32.3001Z" fill="#472B29"/>
<path id="Vector_46" d="M39.9 30.2002H37.5V32.6002H39.9V30.2002Z" fill="#CBC9BC"/>
<path id="Vector_47" d="M39.9002 32.9001H37.5002C37.3346 32.9001 37.2002 32.7657 37.2002 32.6001V30.2001C37.2002 30.0345 37.3346 29.9001 37.5002 29.9001H39.9002C40.0658 29.9001 40.2002 30.0345 40.2002 30.2001V32.6001C40.2002 32.7657 40.0658 32.9001 39.9002 32.9001ZM37.8002 32.3001H39.6002V30.5001H37.8002V32.3001Z" fill="#472B29"/>
<g id="Group_2">
<path id="Vector_48" d="M21.9 33.8H19.5V36.2H21.9V33.8Z" fill="#CBC9BC"/>
<path id="Vector_49" d="M21.9002 36.5H19.5002C19.3346 36.5 19.2002 36.3656 19.2002 36.2V33.8C19.2002 33.6344 19.3346 33.5 19.5002 33.5H21.9002C22.0658 33.5 22.2002 33.6344 22.2002 33.8V36.2C22.2002 36.3656 22.0658 36.5 21.9002 36.5ZM19.8002 35.9H21.6002V34.1H19.8002V35.9Z" fill="#472B29"/>
</g>
<g id="Group_3">
<path id="Vector_50" d="M25.5001 33.8H23.1001V36.2H25.5001V33.8Z" fill="#CBC9BC"/>
<path id="Vector_51" d="M25.5003 36.5H23.1003C22.9347 36.5 22.8003 36.3656 22.8003 36.2V33.8C22.8003 33.6344 22.9347 33.5 23.1003 33.5H25.5003C25.6659 33.5 25.8003 33.6344 25.8003 33.8V36.2C25.8003 36.3656 25.6659 36.5 25.5003 36.5ZM23.4003 35.9H25.2003V34.1H23.4003V35.9Z" fill="#472B29"/>
</g>
<g id="Group_4">
<path id="Vector_52" d="M29.1002 33.8H26.7002V36.2H29.1002V33.8Z" fill="#CBC9BC"/>
<path id="Vector_53" d="M29.1004 36.5H26.7004C26.5348 36.5 26.4004 36.3656 26.4004 36.2V33.8C26.4004 33.6344 26.5348 33.5 26.7004 33.5H29.1004C29.266 33.5 29.4004 33.6344 29.4004 33.8V36.2C29.4004 36.3656 29.266 36.5 29.1004 36.5ZM27.0004 35.9H28.8004V34.1H27.0004V35.9Z" fill="#472B29"/>
</g>
<g id="Group_5">
<path id="Vector_54" d="M32.6998 33.8H30.2998V36.2H32.6998V33.8Z" fill="#CBC9BC"/>
<path id="Vector_55" d="M32.7 36.5H30.3C30.1344 36.5 30 36.3656 30 36.2V33.8C30 33.6344 30.1344 33.5 30.3 33.5H32.7C32.8656 33.5 33 33.6344 33 33.8V36.2C33 36.3656 32.8656 36.5 32.7 36.5ZM30.6 35.9H32.4V34.1H30.6V35.9Z" fill="#472B29"/>
</g>
<g id="Group_6">
<path id="Vector_56" d="M36.2999 33.8H33.8999V36.2H36.2999V33.8Z" fill="#CBC9BC"/>
<path id="Vector_57" d="M36.3001 36.5H33.9001C33.7345 36.5 33.6001 36.3656 33.6001 36.2V33.8C33.6001 33.6344 33.7345 33.5 33.9001 33.5H36.3001C36.4657 33.5 36.6001 33.6344 36.6001 33.8V36.2C36.6001 36.3656 36.4657 36.5 36.3001 36.5ZM34.2001 35.9H36.0001V34.1H34.2001V35.9Z" fill="#472B29"/>
</g>
<g id="Group_7">
<path id="Vector_58" d="M39.9 33.8H37.5V36.2H39.9V33.8Z" fill="#CBC9BC"/>
<path id="Vector_59" d="M39.9002 36.5H37.5002C37.3346 36.5 37.2002 36.3656 37.2002 36.2V33.8C37.2002 33.6344 37.3346 33.5 37.5002 33.5H39.9002C40.0658 33.5 40.2002 33.6344 40.2002 33.8V36.2C40.2002 36.3656 40.0658 36.5 39.9002 36.5ZM37.8002 35.9H39.6002V34.1H37.8002V35.9Z" fill="#472B29"/>
</g>
<g id="Group_8">
<path id="Vector_60" d="M21.9 37.4001H19.5V39.8001H21.9V37.4001Z" fill="#CBC9BC"/>
<path id="Vector_61" d="M21.9002 40.1001H19.5002C19.3346 40.1001 19.2002 39.9657 19.2002 39.8001V37.4001C19.2002 37.2345 19.3346 37.1001 19.5002 37.1001H21.9002C22.0658 37.1001 22.2002 37.2345 22.2002 37.4001V39.8001C22.2002 39.9657 22.0658 40.1001 21.9002 40.1001ZM19.8002 39.5001H21.6002V37.7001H19.8002V39.5001Z" fill="#472B29"/>
</g>
<g id="Group_9">
<path id="Vector_62" d="M25.5001 37.4001H23.1001V39.8001H25.5001V37.4001Z" fill="#CBC9BC"/>
<path id="Vector_63" d="M25.5003 40.1001H23.1003C22.9347 40.1001 22.8003 39.9657 22.8003 39.8001V37.4001C22.8003 37.2345 22.9347 37.1001 23.1003 37.1001H25.5003C25.6659 37.1001 25.8003 37.2345 25.8003 37.4001V39.8001C25.8003 39.9657 25.6659 40.1001 25.5003 40.1001ZM23.4003 39.5001H25.2003V37.7001H23.4003V39.5001Z" fill="#472B29"/>
</g>
<g id="Group_10">
<path id="Vector_64" d="M29.1002 37.4001H26.7002V39.8001H29.1002V37.4001Z" fill="#CBC9BC"/>
<path id="Vector_65" d="M29.1004 40.1001H26.7004C26.5348 40.1001 26.4004 39.9657 26.4004 39.8001V37.4001C26.4004 37.2345 26.5348 37.1001 26.7004 37.1001H29.1004C29.266 37.1001 29.4004 37.2345 29.4004 37.4001V39.8001C29.4004 39.9657 29.266 40.1001 29.1004 40.1001ZM27.0004 39.5001H28.8004V37.7001H27.0004V39.5001Z" fill="#472B29"/>
</g>
<g id="Group_11">
<path id="Vector_66" d="M32.6998 37.4001H30.2998V39.8001H32.6998V37.4001Z" fill="#CBC9BC"/>
<path id="Vector_67" d="M32.7 40.1001H30.3C30.1344 40.1001 30 39.9657 30 39.8001V37.4001C30 37.2345 30.1344 37.1001 30.3 37.1001H32.7C32.8656 37.1001 33 37.2345 33 37.4001V39.8001C33 39.9657 32.8656 40.1001 32.7 40.1001ZM30.6 39.5001H32.4V37.7001H30.6V39.5001Z" fill="#472B29"/>
</g>
<g id="Group_12">
<path id="Vector_68" d="M36.2999 37.4001H33.8999V39.8001H36.2999V37.4001Z" fill="#CBC9BC"/>
<path id="Vector_69" d="M36.3001 40.1001H33.9001C33.7345 40.1001 33.6001 39.9657 33.6001 39.8001V37.4001C33.6001 37.2345 33.7345 37.1001 33.9001 37.1001H36.3001C36.4657 37.1001 36.6001 37.2345 36.6001 37.4001V39.8001C36.6001 39.9657 36.4657 40.1001 36.3001 40.1001ZM34.2001 39.5001H36.0001V37.7001H34.2001V39.5001Z" fill="#472B29"/>
</g>
</g>
</g>
</svg>
