<svg width="120" height="36" viewBox="0 0 120 36" fill="none" xmlns="http://www.w3.org/2000/svg">
<mask id="mask0_405_3224" style="mask-type:luminance" maskUnits="userSpaceOnUse" x="0" y="0" width="36" height="36">
<path d="M35.7134 0.222168H0V35.7777H35.7134V0.222168Z" fill="white"/>
</mask>
<g mask="url(#mask0_405_3224)">
<path d="M11.4574 33.1111H5.50513C4.6123 33.1111 3.76906 32.6173 3.32265 31.8765L0.346532 26.7407C-0.0998855 25.9506 -0.0998855 25.0123 0.346532 24.2716L3.32265 19.0864C3.42185 18.9383 3.47145 18.8395 3.62026 18.6913C3.96747 18.2963 4.56269 18.395 4.8107 18.8395L7.78682 23.9753C8.23324 24.7654 9.07648 25.2099 9.96932 25.2099H15.9711C16.0208 25.2099 16.0704 25.2099 16.12 25.2099C16.616 25.1605 17.0128 25.6049 16.9136 26.0987C16.864 26.2963 16.7648 26.4938 16.6656 26.6913L13.6895 31.8271C13.1934 32.6173 12.3502 33.1111 11.4574 33.1111Z" fill="#1C1934"/>
<path d="M2.67773 11.6297V5.70376C2.67773 4.81487 3.17375 3.97536 3.91778 3.53092L9.0764 0.567953C9.87003 0.123508 10.8125 0.123508 11.5565 0.567953L16.7647 3.53092C16.9135 3.62968 17.0127 3.67906 17.1615 3.82721C17.5583 4.17289 17.4591 4.76548 17.0127 5.0124L11.8541 7.97536C11.0605 8.41981 10.6141 9.25931 10.6141 10.1482V16.1235C10.6141 16.1729 10.6141 16.2223 10.6141 16.2717C10.6637 16.7655 10.2172 17.1605 9.72122 17.0618C9.52281 17.0124 9.32441 16.9136 9.126 16.8149L3.96738 13.8519C3.17375 13.3581 2.67773 12.5186 2.67773 11.6297Z" fill="#1C1934"/>
<path d="M24.2539 2.88867H30.2558C31.1486 2.88867 31.9918 3.3825 32.4383 4.12324L35.4144 9.25904C35.8608 10.0492 35.8608 10.9874 35.4144 11.7282L32.4383 16.9134C32.3391 17.0615 32.2895 17.1603 32.1406 17.3084C31.7934 17.7035 31.1982 17.6047 30.9502 17.1603L27.9741 12.0245C27.5277 11.2344 26.6844 10.7899 25.7916 10.7899H19.7898C19.7402 10.7899 19.6906 10.7899 19.641 10.7899C19.1449 10.8393 18.7481 10.3948 18.8473 9.90102C18.8969 9.70349 18.9961 9.50596 19.0953 9.30843L22.0715 4.17262C22.5179 3.3825 23.3611 2.88867 24.2539 2.88867Z" fill="#1C1934"/>
<path d="M33.0331 24.3704V30.3457C33.0331 31.2346 32.5371 32.0741 31.7931 32.5185L26.6345 35.4815C25.8409 35.9259 24.8984 35.9259 24.1544 35.4815L18.9462 32.5185C18.7974 32.4197 18.6982 32.3704 18.5494 32.2222C18.1526 31.8765 18.2518 31.2839 18.6982 31.037L23.8568 28.0741C24.6504 27.6296 25.0968 26.7901 25.0968 25.9012V19.9259C25.0968 19.8765 25.0968 19.8272 25.0968 19.7778C25.0472 19.2839 25.4936 18.8889 25.9897 18.9876C26.1881 19.037 26.3865 19.1358 26.5849 19.2346L31.7435 22.1975C32.5371 22.642 33.0331 23.4815 33.0331 24.3704Z" fill="#1C1934"/>
<path d="M34.6804 2.28336C34.5371 2.28336 34.4026 2.25656 34.2771 2.20295C34.1516 2.14934 34.0414 2.07519 33.9464 1.98048C33.8514 1.88577 33.777 1.77588 33.7232 1.6508C33.6695 1.52572 33.6426 1.3917 33.6426 1.24874C33.6426 1.10579 33.6685 0.972667 33.7206 0.849371C33.7743 0.726074 33.8487 0.617073 33.9437 0.522368C34.0387 0.427662 34.1489 0.354399 34.2745 0.302578C34.3999 0.248971 34.5352 0.222168 34.6804 0.222168C34.8221 0.222168 34.9547 0.248971 35.0784 0.302578C35.2039 0.354399 35.3141 0.427662 35.4091 0.522368C35.5041 0.615286 35.5785 0.724287 35.6323 0.849371C35.686 0.972667 35.7129 1.10579 35.7129 1.24874C35.7129 1.3917 35.686 1.52572 35.6323 1.6508C35.5802 1.77588 35.5067 1.88577 35.4118 1.98048C35.3168 2.07519 35.2065 2.14934 35.081 2.20295C34.9574 2.25656 34.8239 2.28336 34.6804 2.28336ZM34.6804 2.03408C34.7898 2.03408 34.8911 2.01443 34.9842 1.97512C35.0793 1.93402 35.1626 1.87773 35.2343 1.80625C35.306 1.73478 35.3616 1.65169 35.401 1.55699C35.4422 1.46228 35.4628 1.35953 35.4628 1.24874C35.4628 1.14153 35.4422 1.04057 35.401 0.945864C35.3616 0.851158 35.306 0.768067 35.2343 0.696591C35.1626 0.625115 35.0793 0.56972 34.9842 0.530409C34.8911 0.48931 34.7898 0.46876 34.6804 0.46876C34.5693 0.46876 34.4662 0.48931 34.3713 0.530409C34.2762 0.56972 34.1929 0.625115 34.1212 0.696591C34.0495 0.768067 33.993 0.851158 33.9518 0.945864C33.9123 1.03878 33.8927 1.13974 33.8927 1.24874C33.8927 1.35953 33.9123 1.46228 33.9518 1.55699C33.993 1.65169 34.0495 1.73478 34.1212 1.80625C34.1929 1.87773 34.2762 1.93402 34.3713 1.97512C34.4662 2.01443 34.5693 2.03408 34.6804 2.03408ZM34.6912 1.8143C34.5873 1.8143 34.4922 1.79018 34.4062 1.74193C34.3219 1.69189 34.2547 1.62489 34.2045 1.5409C34.1561 1.45513 34.132 1.35864 34.132 1.25142C34.132 1.14242 34.1561 1.04593 34.2045 0.961945C34.2547 0.877961 34.3219 0.811846 34.4062 0.763599C34.4905 0.715353 34.5854 0.69123 34.6912 0.69123C34.7719 0.69123 34.8444 0.704632 34.909 0.731435C34.9753 0.756452 35.0309 0.791296 35.0757 0.835969C35.1205 0.880641 35.1519 0.931568 35.1698 0.988749L34.9278 1.08256C34.9099 1.03968 34.8803 1.00394 34.8391 0.975347C34.7996 0.94497 34.7504 0.929781 34.6912 0.929781C34.6034 0.929781 34.5326 0.960159 34.4788 1.02091C34.4268 1.07988 34.4008 1.15672 34.4008 1.25142C34.4008 1.34613 34.4268 1.42386 34.4788 1.48461C34.5326 1.54358 34.6034 1.57306 34.6912 1.57306C34.7486 1.57306 34.7978 1.55877 34.8391 1.53018C34.8803 1.50159 34.9099 1.46585 34.9278 1.42297L35.1698 1.51678C35.1519 1.57396 35.1205 1.62489 35.0757 1.66956C35.0309 1.71423 34.9753 1.74997 34.909 1.77677C34.8444 1.80179 34.7719 1.8143 34.6912 1.8143Z" fill="#1C1934"/>
</g>
<mask id="mask1_405_3224" style="mask-type:luminance" maskUnits="userSpaceOnUse" x="44" y="12" width="76" height="12">
<path d="M119.999 12.1055H44.6016V23.8944H119.999V12.1055Z" fill="white"/>
</mask>
<g mask="url(#mask1_405_3224)">
<path d="M57.7103 19.8308C57.6199 20.6794 57.3034 21.4386 56.8062 22.0189C56.309 22.6441 55.5857 23.0907 54.7269 23.4033C53.8681 23.7159 52.7832 23.8945 51.5627 23.8945C50.5231 23.8945 49.619 23.7605 48.7602 23.5373C47.9013 23.3141 47.1781 22.9567 46.5905 22.5101C45.9576 22.0637 45.5056 21.4832 45.1892 20.7686C44.7824 20.0542 44.6016 19.2504 44.6016 18.3127C44.6016 17.3749 44.7824 16.5711 45.0988 15.8566C45.4152 15.142 45.9124 14.5616 46.5001 14.1151C47.1329 13.6239 47.8561 13.3113 48.6698 13.0433C49.5738 12.8201 50.4779 12.7307 51.5175 12.7307C52.738 12.7307 53.7777 12.9093 54.6817 13.2219C55.5857 13.5345 56.2638 14.0257 56.8062 14.6508C57.3034 15.276 57.6199 15.9906 57.7103 16.8836H55.4953C55.3597 16.4372 55.0885 16.0352 54.7721 15.678C54.4105 15.3208 54.0037 15.0974 53.4612 14.9188C52.9188 14.7402 52.286 14.6508 51.5627 14.6508C50.6587 14.6508 49.8451 14.7848 49.1218 15.0528C48.3986 15.3208 47.8561 15.7672 47.4945 16.3032C47.1329 16.839 46.9069 17.5087 46.9069 18.3573C46.9069 19.1611 47.0877 19.8308 47.4945 20.3668C47.8561 20.9026 48.3986 21.3046 49.1218 21.6172C49.7999 21.885 50.6135 22.0189 51.5627 22.0189C52.286 22.0189 52.9188 21.9297 53.4612 21.7511C54.0037 21.5724 54.4105 21.3046 54.7721 20.992C55.1337 20.6794 55.3597 20.2774 55.5406 19.8308H57.7103Z" fill="#1C1934"/>
<path d="M73.7577 12.1055V21.5723C73.7577 21.9297 73.7577 22.2869 73.7125 22.6888C73.6673 23.0906 73.6673 23.4032 73.622 23.6712H71.5879V12.1055H73.7577ZM77.6902 23.8498C76.967 23.8498 76.3341 23.7158 75.7918 23.4478C75.2494 23.18 74.8426 22.8226 74.526 22.4209C74.2097 21.9743 73.9385 21.5277 73.8028 21.0365C73.6673 20.5453 73.5768 20.0541 73.5768 19.563C73.5768 18.9378 73.6673 18.4018 73.8028 17.866C73.9385 17.3301 74.2097 16.8835 74.526 16.4817C74.7974 16.1245 75.2494 15.8119 75.7918 15.5885C76.289 15.3653 76.9218 15.2313 77.6902 15.2313C78.5491 15.2313 79.3176 15.4099 79.9956 15.7671C80.6737 16.1245 81.1709 16.6157 81.5777 17.2855C81.9846 17.9106 82.1652 18.6698 82.1652 19.563C82.1652 20.4113 81.9846 21.1705 81.5777 21.7957C81.1709 22.4655 80.6737 22.9566 79.9956 23.314C79.3176 23.6712 78.5491 23.8498 77.6902 23.8498ZM76.967 22.1975C77.5547 22.1975 78.097 22.1083 78.5039 21.8849C78.9108 21.6617 79.2724 21.3491 79.5436 20.9471C79.7696 20.5453 79.9051 20.0988 79.9051 19.563C79.9051 18.759 79.634 18.1338 79.1368 17.6427C78.6396 17.1515 77.9162 16.9283 76.967 16.9283C76.3341 16.9283 75.7466 17.0175 75.2494 17.2409C74.752 17.4641 74.3905 17.732 74.1194 18.1338C73.848 18.5358 73.7125 19.027 73.7125 19.563C73.7125 20.0988 73.848 20.5453 74.1194 20.9471C74.3905 21.3491 74.752 21.6617 75.2494 21.8849C75.7466 22.1083 76.3341 22.1975 76.967 22.1975Z" fill="#1C1934"/>
<path d="M86.2772 12.1055V21.5723C86.2772 21.9297 86.2772 22.2869 86.232 22.6888C86.1867 23.0906 86.1867 23.4032 86.1415 23.6712H84.1074V12.1055H86.2772ZM90.2097 23.8498C89.4865 23.8498 88.8537 23.7158 88.3113 23.4478C87.7689 23.18 87.3621 22.8226 87.0456 22.4209C86.7292 21.9743 86.458 21.5277 86.3224 21.0365C86.1867 20.5453 86.0964 20.0541 86.0964 19.563C86.0964 18.9378 86.1867 18.4018 86.3224 17.866C86.458 17.3301 86.7292 16.8835 87.0456 16.4817C87.3621 16.0797 87.8141 15.7671 88.3113 15.5439C88.8537 15.3207 89.4865 15.2313 90.2097 15.2313C91.0686 15.2313 91.8371 15.4099 92.5152 15.7671C93.1932 16.1245 93.6904 16.6157 94.0973 17.2855C94.5041 17.9106 94.6848 18.6698 94.6848 19.563C94.6848 20.4113 94.5041 21.1705 94.0973 21.7957C93.6904 22.4655 93.1932 22.9566 92.5152 23.314C91.8371 23.6712 91.0234 23.8498 90.2097 23.8498ZM89.4865 22.1975C90.0742 22.1975 90.6166 22.1083 91.0234 21.8849C91.4303 21.6617 91.7918 21.3491 92.0632 20.9471C92.2892 20.5453 92.4247 20.0988 92.4247 19.563C92.4247 18.759 92.1535 18.1338 91.6563 17.6427C91.1591 17.1515 90.4357 16.9283 89.4865 16.9283C88.8537 16.9283 88.2661 17.0175 87.7689 17.2409C87.2716 17.4641 86.9101 17.732 86.6387 18.1338C86.3675 18.5358 86.232 19.027 86.232 19.563C86.232 20.0988 86.3675 20.5453 86.6387 20.9471C86.9101 21.3491 87.2716 21.6617 87.7689 21.8849C88.2661 22.1083 88.8085 22.1975 89.4865 22.1975Z" fill="#1C1934"/>
<path d="M98.5721 15.4546V23.6712H96.4023V15.4546H98.5721Z" fill="#1C1934"/>
<path d="M108.382 20.9471H110.506C110.416 21.5276 110.19 22.0188 109.783 22.4654C109.376 22.912 108.879 23.2692 108.201 23.4925C107.523 23.7157 106.754 23.8943 105.76 23.8943C104.675 23.8943 103.771 23.7157 102.957 23.4032C102.144 23.046 101.511 22.5548 101.059 21.9296C100.607 21.3044 100.381 20.5007 100.381 19.6075C100.381 18.7143 100.607 17.9106 101.059 17.2854C101.511 16.6156 102.144 16.1244 102.912 15.8118C103.726 15.4545 104.63 15.2759 105.715 15.2759C106.799 15.2759 107.704 15.4545 108.472 15.8118C109.195 16.169 109.738 16.6602 110.099 17.3748C110.461 18.0446 110.597 18.9377 110.551 20.0093H102.596C102.641 20.4113 102.822 20.8132 103.093 21.1704C103.364 21.5276 103.726 21.7956 104.178 21.9742C104.63 22.1528 105.172 22.2868 105.805 22.2868C106.483 22.2868 107.071 22.1528 107.523 21.9296C107.975 21.7062 108.246 21.3044 108.382 20.9471ZM105.624 16.8834C104.811 16.8834 104.178 17.0622 103.635 17.4194C103.138 17.7766 102.822 18.1786 102.641 18.7143H108.336C108.291 18.1786 108.02 17.732 107.523 17.3748C107.071 17.0622 106.438 16.8834 105.624 16.8834Z" fill="#1C1934"/>
<path d="M111.816 20.947H113.851C113.986 21.3044 114.212 21.6169 114.619 21.8847C115.026 22.1527 115.523 22.2421 116.156 22.2421C116.563 22.2421 116.924 22.1973 117.15 22.1081C117.376 22.0187 117.557 21.9295 117.648 21.7509C117.738 21.6169 117.783 21.4383 117.783 21.2596C117.783 21.0364 117.693 20.8578 117.557 20.7238C117.422 20.5898 117.196 20.5006 116.879 20.4112C116.563 20.3218 116.201 20.2772 115.704 20.188C115.252 20.0986 114.8 20.0092 114.348 19.92C113.896 19.8306 113.534 19.652 113.172 19.4734C112.811 19.2948 112.585 19.0715 112.359 18.7589C112.178 18.4911 112.042 18.1337 112.042 17.7319C112.042 17.3299 112.133 16.9727 112.359 16.6601C112.585 16.3476 112.811 16.0796 113.172 15.901C113.534 15.6778 113.941 15.5438 114.438 15.4098C114.935 15.2758 115.433 15.2312 115.975 15.2312C116.789 15.2312 117.512 15.3652 118.054 15.5884C118.597 15.8118 119.004 16.169 119.275 16.5708C119.546 17.0173 119.682 17.5085 119.682 18.0445H117.738C117.648 17.6425 117.467 17.3299 117.196 17.1513C116.924 16.9727 116.517 16.8833 115.93 16.8833C115.387 16.8833 114.981 16.9727 114.664 17.1513C114.393 17.3299 114.257 17.5533 114.257 17.8211C114.257 18.0445 114.348 18.2231 114.529 18.3571C114.709 18.4911 114.981 18.5803 115.297 18.6697C115.659 18.7589 116.065 18.8483 116.563 18.9377C117.015 19.0269 117.422 19.1162 117.828 19.2502C118.235 19.384 118.597 19.518 118.913 19.652C119.23 19.8306 119.456 20.054 119.682 20.3218C119.862 20.5898 119.953 20.947 119.953 21.3936C119.953 21.9295 119.817 22.3761 119.501 22.7333C119.184 23.0905 118.732 23.3585 118.19 23.5817C117.602 23.7603 116.924 23.8943 116.156 23.8943C115.433 23.8943 114.845 23.8051 114.348 23.6711C113.851 23.5371 113.398 23.3139 113.082 23.0905C112.766 22.8673 112.494 22.5993 112.314 22.3313C112.133 22.0635 111.997 21.7955 111.952 21.5722C111.816 21.3044 111.816 21.081 111.816 20.947Z" fill="#1C1934"/>
<path d="M98.5721 14.249H96.4023V12.1055H98.5721V14.249Z" fill="#1C1934"/>
<path d="M67.2017 19.6967V20.2773C67.2017 20.4113 67.1112 20.6345 67.0209 20.9471C66.9306 21.2597 66.7949 21.5723 66.614 21.8849C66.4332 22.1974 66.2072 22.5548 65.8908 22.8226C65.5745 23.0906 65.258 23.3586 64.806 23.5818C64.3991 23.7604 63.8567 23.8944 63.3144 23.8944C62.8622 23.8944 62.4103 23.8498 61.9582 23.7158C61.5062 23.6266 61.0994 23.4032 60.7378 23.18C60.3761 22.912 60.1049 22.5548 59.8789 22.1082C59.6529 21.6617 59.5625 21.1259 59.5625 20.4113V15.4099H61.7774V20.0541C61.7774 20.5899 61.8678 20.9919 62.0486 21.3045C62.2294 21.6171 62.4555 21.8403 62.817 21.9296C63.1335 22.0636 63.5404 22.1082 63.9924 22.1082C64.5799 22.1082 65.1225 21.9742 65.5745 21.7063C66.0265 21.4385 66.388 21.1259 66.6592 20.7685C66.8852 20.4113 67.1112 20.0541 67.2017 19.6967ZM69.281 23.6712H67.1112V15.4099H69.281V23.6712Z" fill="#1C1934"/>
</g>
</svg>
