<svg width="60" height="60" viewBox="0 0 60 60" fill="none" xmlns="http://www.w3.org/2000/svg">
<g id="icons8-doubt 2">
<g id="FILLED OUTLINE">
<path id="Vector" d="M26.25 2.8125H4.6875C3.65197 2.8125 2.8125 3.65197 2.8125 4.6875V53.4375C2.8125 54.473 3.65197 55.3125 4.6875 55.3125H26.25C27.2855 55.3125 28.125 54.473 28.125 53.4375V4.6875C28.125 3.65197 27.2855 2.8125 26.25 2.8125Z" fill="#E5E1DC"/>
<path id="Vector_2" d="M55.3125 2.8125H33.75C32.7145 2.8125 31.875 3.65197 31.875 4.6875V53.4375C31.875 54.473 32.7145 55.3125 33.75 55.3125H55.3125C56.348 55.3125 57.1875 54.473 57.1875 53.4375V4.6875C57.1875 3.65197 56.348 2.8125 55.3125 2.8125Z" fill="#E5E1DC"/>
<path id="Vector_3" d="M43.7758 35.625H42.1877V35.6245C42.1876 32.3923 40.9035 29.2925 38.6179 27.007C36.3323 24.7215 33.2325 23.4375 30.0002 23.4375H29.9964C26.7651 23.4375 23.6661 24.7212 21.3812 27.0061C19.0964 29.291 17.8127 32.39 17.8127 35.6214V35.625H16.2246C15.956 35.625 15.6905 35.6827 15.4461 35.7943C15.2017 35.9058 14.9842 36.0686 14.8081 36.2715C14.6321 36.4744 14.5018 36.7128 14.4259 36.9705C14.3501 37.2282 14.3305 37.4992 14.3685 37.7652L14.8363 41.0403C14.8856 41.385 15.0299 41.7092 15.253 41.9766C15.4761 42.2439 15.7692 42.4438 16.0996 42.5539L16.6746 42.7456C17.0144 42.8589 17.3146 43.0671 17.5398 43.3456C17.765 43.6242 17.9056 43.9614 17.9452 44.3174L18.3717 48.1559C18.4816 49.1446 18.9031 50.0727 19.5754 50.806C20.2476 51.5392 21.1358 52.0396 22.1112 52.2347L22.6841 52.3493C22.8966 52.3918 23.0878 52.5066 23.2252 52.6742C23.3626 52.8418 23.4377 53.0518 23.4377 53.2686V58.125H36.5627V53.2686C36.5627 53.0518 36.6378 52.8418 36.7752 52.6742C36.9126 52.5066 37.1039 52.3918 37.3164 52.3493L37.8892 52.2347C38.8647 52.0396 39.7528 51.5392 40.4251 50.806C41.0973 50.0727 41.5189 49.1446 41.6287 48.1559L42.0553 44.3174C42.0948 43.9614 42.2355 43.6242 42.4607 43.3456C42.6858 43.0671 42.9861 42.8589 43.3258 42.7456L43.9009 42.5539C44.2312 42.4438 44.5244 42.2439 44.7475 41.9766C44.9706 41.7092 45.1149 41.385 45.1641 41.0403L45.632 37.7652C45.67 37.4992 45.6504 37.2282 45.5745 36.9705C45.4987 36.7128 45.3683 36.4744 45.1923 36.2715C45.0163 36.0686 44.7987 35.9058 44.5543 35.7943C44.31 35.6827 44.0445 35.625 43.7758 35.625Z" fill="#1C3B54"/>
<path id="Vector_4" d="M30.9375 43.1249H29.0625V40.889C29.0671 40.301 29.262 39.7304 29.6179 39.2623C29.9738 38.7943 30.4716 38.454 31.0369 38.2924C31.8835 38.0488 32.6173 37.5149 33.1097 36.7845C33.6021 36.054 33.8217 35.1735 33.73 34.2974C33.6382 33.4212 33.2411 32.6053 32.608 31.9927C31.975 31.38 31.1466 31.0097 30.2679 30.9467C29.7542 30.91 29.2384 30.9795 28.7527 31.1508C28.267 31.3222 27.8218 31.5917 27.4449 31.9427C27.0679 32.2936 26.7673 32.7184 26.5617 33.1907C26.3561 33.6629 26.25 34.1724 26.25 34.6874H24.375C24.3762 33.9162 24.5354 33.1534 24.8428 32.446C25.1503 31.7387 25.5994 31.1018 26.1625 30.5748C26.7259 30.0453 27.3933 29.6386 28.1222 29.3806C28.8512 29.1226 29.6258 29.0189 30.3969 29.0761C31.7155 29.1694 32.9591 29.7241 33.9095 30.6428C34.86 31.5615 35.4566 32.7855 35.5947 34.1002C35.7327 35.4148 35.4035 36.7361 34.6647 37.8323C33.9258 38.9284 32.8246 39.7294 31.5542 40.0947C31.3786 40.1412 31.2231 40.2442 31.1117 40.3877C31.0003 40.5312 30.9391 40.7073 30.9375 40.889V43.1249Z" fill="#5DC691"/>
<path id="Vector_5" d="M30.9375 45H29.0625V46.875H30.9375V45Z" fill="#5DC691"/>
<path id="Vector_6" d="M15.9375 19.6875C19.5619 19.6875 22.5 16.7494 22.5 13.125C22.5 9.50063 19.5619 6.5625 15.9375 6.5625C12.3131 6.5625 9.375 9.50063 9.375 13.125C9.375 16.7494 12.3131 19.6875 15.9375 19.6875Z" fill="#5DC691"/>
<path id="Vector_7" d="M14.9998 16.3258L12.4619 13.788L13.7878 12.4622L14.9998 13.6743L18.0869 10.5872L19.4128 11.913L14.9998 16.3258Z" fill="#4AA071"/>
<path id="Vector_8" d="M7.5 22.5H5.625V24.375H7.5V22.5Z" fill="#C1C1C1"/>
<path id="Vector_9" d="M20.625 22.5H9.375V24.375H20.625V22.5Z" fill="#C1C1C1"/>
<path id="Vector_10" d="M7.5 28.125H5.625V30H7.5V28.125Z" fill="#C1C1C1"/>
<path id="Vector_11" d="M15.9375 28.125H9.375V30H15.9375V28.125Z" fill="#C1C1C1"/>
<path id="Vector_12" d="M7.5 33.75H5.625V35.625H7.5V33.75Z" fill="#C1C1C1"/>
<path id="Vector_13" d="M12.1875 33.75H9.375V35.625H12.1875V33.75Z" fill="#C1C1C1"/>
<path id="Vector_14" d="M7.5 39.375H5.625V41.25H7.5V39.375Z" fill="#C1C1C1"/>
<path id="Vector_15" d="M12.1875 39.375H9.375V41.25H12.1875V39.375Z" fill="#C1C1C1"/>
<path id="Vector_16" d="M7.5 45H5.625V46.875H7.5V45Z" fill="#C1C1C1"/>
<path id="Vector_17" d="M15 45H9.375V46.875H15V45Z" fill="#C1C1C1"/>
<path id="Vector_18" d="M7.5 50.625H5.625V52.5H7.5V50.625Z" fill="#C1C1C1"/>
<path id="Vector_19" d="M15.9375 50.625H9.375V52.5H15.9375V50.625Z" fill="#C1C1C1"/>
<path id="Vector_20" d="M44.0625 19.6875C47.6869 19.6875 50.625 16.7494 50.625 13.125C50.625 9.50063 47.6869 6.5625 44.0625 6.5625C40.4381 6.5625 37.5 9.50063 37.5 13.125C37.5 16.7494 40.4381 19.6875 44.0625 19.6875Z" fill="#F29D35"/>
<path id="Vector_21" d="M41.25 22.5H39.375V24.375H41.25V22.5Z" fill="#C1C1C1"/>
<path id="Vector_22" d="M54.375 22.5H43.125V24.375H54.375V22.5Z" fill="#C1C1C1"/>
<path id="Vector_23" d="M54.375 28.125H47.8125V30H54.375V28.125Z" fill="#C1C1C1"/>
<path id="Vector_24" d="M45.9375 28.125H44.0625V30H45.9375V28.125Z" fill="#C1C1C1"/>
<path id="Vector_25" d="M54.375 33.75H51.5625V35.625H54.375V33.75Z" fill="#C1C1C1"/>
<path id="Vector_26" d="M49.6875 33.75H47.8125V35.625H49.6875V33.75Z" fill="#C1C1C1"/>
<path id="Vector_27" d="M54.375 39.375H51.5625V41.25H54.375V39.375Z" fill="#C1C1C1"/>
<path id="Vector_28" d="M49.6875 39.375H47.8125V41.25H49.6875V39.375Z" fill="#C1C1C1"/>
<path id="Vector_29" d="M54.375 45H48.75V46.875H54.375V45Z" fill="#C1C1C1"/>
<path id="Vector_30" d="M46.875 45H45V46.875H46.875V45Z" fill="#C1C1C1"/>
<path id="Vector_31" d="M54.375 50.625H47.8125V52.5H54.375V50.625Z" fill="#C1C1C1"/>
<path id="Vector_32" d="M45.9375 50.625H44.0625V52.5H45.9375V50.625Z" fill="#C1C1C1"/>
<path id="Vector_33" d="M41.9128 9.64968L40.5869 10.9756L46.2119 16.6006L47.5378 15.2747L41.9128 9.64968Z" fill="#C17633"/>
<path id="Vector_34" d="M46.2119 9.64943L40.5869 15.2744L41.9128 16.6003L47.5378 10.9753L46.2119 9.64943Z" fill="#C17633"/>
<path id="Vector_35" d="M30.3969 29.0761C29.6258 29.0189 28.8512 29.1226 28.1222 29.3806C27.3933 29.6386 26.7259 30.0453 26.1625 30.5748C25.5994 31.1018 25.1503 31.7387 24.8428 32.446C24.5354 33.1534 24.3762 33.9162 24.375 34.6874H26.25C26.25 34.1724 26.3561 33.6629 26.5617 33.1907C26.7673 32.7184 27.0679 32.2936 27.4449 31.9427C27.8218 31.5917 28.267 31.3222 28.7527 31.1508C29.2384 30.9795 29.7542 30.91 30.2679 30.9467C31.1466 31.0097 31.975 31.38 32.608 31.9927C33.2411 32.6053 33.6382 33.4212 33.73 34.2974C33.8217 35.1735 33.6021 36.054 33.1097 36.7845C32.6173 37.5149 31.8835 38.0488 31.0369 38.2924C30.4716 38.454 29.9738 38.7943 29.6179 39.2623C29.262 39.7304 29.0671 40.301 29.0625 40.889V43.1249H30.9375V40.889C30.9391 40.7073 31.0003 40.5312 31.1117 40.3877C31.2231 40.2442 31.3786 40.1412 31.5542 40.0947C32.8246 39.7294 33.9258 38.9284 34.6647 37.8323C35.4035 36.7361 35.7327 35.4148 35.5947 34.1002C35.4566 32.7855 34.86 31.5615 33.9095 30.6428C32.9591 29.7241 31.7155 29.1694 30.3969 29.0761Z" fill="black"/>
<path id="Vector_36" d="M30.9375 45H29.0625V46.875H30.9375V45Z" fill="black"/>
<path id="Vector_37" d="M23.4375 13.125C23.4375 11.6416 22.9976 10.1916 22.1735 8.95823C21.3494 7.72486 20.1781 6.76356 18.8076 6.19591C17.4372 5.62825 15.9292 5.47972 14.4743 5.76911C13.0195 6.0585 11.6831 6.77281 10.6342 7.8217C9.58531 8.8706 8.871 10.207 8.58161 11.6618C8.29222 13.1167 8.44075 14.6247 9.00841 15.9951C9.57606 17.3656 10.5374 18.5369 11.7707 19.361C13.0041 20.1851 14.4541 20.625 15.9375 20.625C17.9259 20.6228 19.8323 19.8319 21.2383 18.4258C22.6444 17.0198 23.4353 15.1134 23.4375 13.125ZM15.9375 18.75C14.825 18.75 13.7374 18.4201 12.8124 17.802C11.8874 17.1839 11.1664 16.3054 10.7407 15.2776C10.3149 14.2498 10.2035 13.1188 10.4206 12.0276C10.6376 10.9365 11.1734 9.9342 11.96 9.14753C12.7467 8.36086 13.749 7.82513 14.8401 7.60809C15.9313 7.39104 17.0623 7.50244 18.0901 7.92818C19.1179 8.35392 19.9964 9.07489 20.6145 9.99992C21.2326 10.9249 21.5625 12.0125 21.5625 13.125C21.5608 14.6163 20.9677 16.0461 19.9131 17.1006C18.8586 18.1552 17.4288 18.7483 15.9375 18.75Z" fill="black"/>
<path id="Vector_38" d="M14.9998 13.6743L13.7878 12.4622L12.4619 13.788L14.9998 16.3258L19.4128 11.913L18.0869 10.5872L14.9998 13.6743Z" fill="black"/>
<path id="Vector_39" d="M7.5 22.5H5.625V24.375H7.5V22.5Z" fill="black"/>
<path id="Vector_40" d="M20.625 22.5H9.375V24.375H20.625V22.5Z" fill="black"/>
<path id="Vector_41" d="M7.5 28.125H5.625V30H7.5V28.125Z" fill="black"/>
<path id="Vector_42" d="M15.9375 28.125H9.375V30H15.9375V28.125Z" fill="black"/>
<path id="Vector_43" d="M7.5 33.75H5.625V35.625H7.5V33.75Z" fill="black"/>
<path id="Vector_44" d="M12.1875 33.75H9.375V35.625H12.1875V33.75Z" fill="black"/>
<path id="Vector_45" d="M7.5 39.375H5.625V41.25H7.5V39.375Z" fill="black"/>
<path id="Vector_46" d="M12.1875 39.375H9.375V41.25H12.1875V39.375Z" fill="black"/>
<path id="Vector_47" d="M7.5 45H5.625V46.875H7.5V45Z" fill="black"/>
<path id="Vector_48" d="M15 45H9.375V46.875H15V45Z" fill="black"/>
<path id="Vector_49" d="M7.5 50.625H5.625V52.5H7.5V50.625Z" fill="black"/>
<path id="Vector_50" d="M15.9375 50.625H9.375V52.5H15.9375V50.625Z" fill="black"/>
<path id="Vector_51" d="M55.3125 1.875H33.75C33.0043 1.87585 32.2895 2.17244 31.7622 2.6997C31.2349 3.22697 30.9384 3.94184 30.9375 4.6875V22.5336C30.6266 22.5115 30.3128 22.5003 29.9962 22.5C29.6823 22.5 29.371 22.5111 29.0625 22.5332V4.6875C29.0616 3.94184 28.7651 3.22697 28.2378 2.6997C27.7105 2.17244 26.9957 1.87585 26.25 1.875H4.6875C3.94184 1.87585 3.22697 2.17244 2.6997 2.6997C2.17244 3.22697 1.87585 3.94184 1.875 4.6875V53.4375C1.87585 54.1832 2.17244 54.898 2.6997 55.4253C3.22697 55.9526 3.94184 56.2491 4.6875 56.25H20.625V54.375H4.6875C4.43895 54.3747 4.20066 54.2759 4.0249 54.1001C3.84915 53.9243 3.75028 53.6861 3.75 53.4375V4.6875C3.75028 4.43895 3.84915 4.20066 4.0249 4.0249C4.20066 3.84915 4.43895 3.75028 4.6875 3.75H26.25C26.4986 3.75028 26.7368 3.84915 26.9126 4.0249C27.0884 4.20066 27.1872 4.43895 27.1875 4.6875V22.8029C24.4231 23.4134 21.9294 24.8997 20.0774 27.041C18.2254 29.1822 17.1139 31.8639 16.9081 34.6875H16.2244C15.8214 34.6875 15.4232 34.7741 15.0566 34.9414C14.69 35.1087 14.3637 35.3528 14.0997 35.6572C13.8357 35.9616 13.6401 36.3192 13.5263 36.7057C13.4126 37.0923 13.3832 37.4988 13.4402 37.8977L13.908 41.173C13.9802 41.6906 14.196 42.1777 14.5309 42.579C14.8658 42.9803 15.3064 43.2797 15.8028 43.4434L16.3779 43.6351C16.5476 43.692 16.6976 43.7962 16.8101 43.9354C16.9227 44.0746 16.9931 44.243 17.0133 44.4209L17.4398 48.2594C17.5686 49.4469 18.0734 50.5623 18.8807 51.4427C19.6879 52.3232 20.7553 52.9228 21.9272 53.154L22.5 53.2686V58.125H24.375V53.2686C24.3741 52.8354 24.2235 52.4158 23.9489 52.0808C23.6742 51.7458 23.2923 51.5159 22.8677 51.43L22.2948 51.3154C21.5136 51.1613 20.802 50.7615 20.2639 50.1746C19.7257 49.5876 19.3892 48.844 19.3033 48.0524L18.8768 44.2138C18.8165 43.6802 18.6051 43.1749 18.2674 42.7572C17.9298 42.3396 17.48 42.027 16.9709 41.8562L16.3957 41.6645C16.2303 41.61 16.0834 41.5102 15.9718 41.3764C15.8602 41.2427 15.7883 41.0803 15.7642 40.9078L15.2964 37.6325C15.2774 37.4996 15.2872 37.3641 15.3251 37.2352C15.363 37.1064 15.4282 36.9872 15.5162 36.8857C15.6042 36.7843 15.713 36.7029 15.8352 36.6471C15.9573 36.5914 16.0901 36.5625 16.2244 36.5625H17.8125L18.75 36.5588V35.6213C18.7505 32.6377 19.9362 29.7764 22.0463 27.6669C24.1565 25.5575 27.0181 24.3727 30.0018 24.3732C32.9855 24.3737 35.8468 25.5594 37.9562 27.6695C40.0657 29.7796 41.2505 32.6413 41.25 35.625V36.5625H43.7756C43.9099 36.5625 44.0427 36.5914 44.1649 36.6471C44.2871 36.7029 44.3958 36.7843 44.4838 36.8858C44.5718 36.9872 44.637 37.1065 44.6749 37.2353C44.7128 37.3642 44.7226 37.4997 44.7036 37.6326L44.2358 40.9077C44.2117 41.0803 44.1398 41.2426 44.0282 41.3764C43.9165 41.5102 43.7696 41.61 43.6042 41.6645L43.0291 41.8562C42.52 42.027 42.0702 42.3396 41.7326 42.7572C41.3949 43.1749 41.1835 43.6802 41.1232 44.2138L40.6967 48.0525C40.6108 48.8441 40.2743 49.5877 39.7361 50.1746C39.198 50.7616 38.4864 51.1613 37.7052 51.3154L37.1322 51.43C36.7076 51.5159 36.3257 51.7458 36.0511 52.0808C35.7765 52.4158 35.626 52.8354 35.625 53.2686V58.125H37.5L37.4999 53.2686L38.0728 53.154C39.2447 52.9228 40.3121 52.3232 41.1193 51.4428C41.9265 50.5623 42.4314 49.447 42.5602 48.2595L42.9868 44.4209C43.0069 44.243 43.0774 44.0746 43.1899 43.9354C43.3025 43.7962 43.4524 43.692 43.6221 43.6351L44.1971 43.4434C44.6935 43.2797 45.1342 42.9803 45.4691 42.579C45.804 42.1777 46.0198 41.6906 46.092 41.1729L46.5598 37.8978C46.6168 37.4989 46.5875 37.0924 46.4737 36.7058C46.3599 36.3193 46.1644 35.9617 45.9004 35.6572C45.6364 35.3528 45.31 35.1087 44.9434 34.9414C44.5768 34.7741 44.1786 34.6875 43.7756 34.6875H43.0919C42.8854 31.8643 41.7736 29.1831 39.9217 27.0422C38.0697 24.9013 35.5765 23.415 32.8125 22.8041V4.6875C32.8128 4.43895 32.9116 4.20066 33.0874 4.0249C33.2632 3.84915 33.5014 3.75028 33.75 3.75H55.3125C55.5611 3.75028 55.7993 3.84915 55.9751 4.0249C56.1509 4.20066 56.2497 4.43895 56.25 4.6875V53.4375C56.2497 53.6861 56.1509 53.9243 55.9751 54.1001C55.7993 54.2759 55.5611 54.3747 55.3125 54.375H39.375V56.25H55.3125C56.0582 56.2491 56.773 55.9526 57.3003 55.4253C57.8276 54.898 58.1241 54.1832 58.125 53.4375V4.6875C58.1241 3.94184 57.8276 3.22697 57.3003 2.6997C56.773 2.17244 56.0582 1.87585 55.3125 1.875Z" fill="black"/>
<path id="Vector_52" d="M51.5625 13.125C51.5625 11.6416 51.1226 10.1916 50.2985 8.95823C49.4744 7.72486 48.3031 6.76356 46.9326 6.19591C45.5622 5.62825 44.0542 5.47972 42.5993 5.76911C41.1445 6.0585 39.8081 6.77281 38.7592 7.8217C37.7103 8.8706 36.996 10.207 36.7066 11.6618C36.4172 13.1167 36.5657 14.6247 37.1334 15.9951C37.7011 17.3656 38.6624 18.5369 39.8957 19.361C41.1291 20.1851 42.5791 20.625 44.0625 20.625C46.0509 20.6228 47.9573 19.8319 49.3633 18.4258C50.7694 17.0198 51.5603 15.1134 51.5625 13.125ZM38.4375 13.125C38.4375 12.0125 38.7674 10.9249 39.3855 9.99992C40.0036 9.07489 40.8821 8.35392 41.9099 7.92818C42.9377 7.50244 44.0687 7.39104 45.1599 7.60809C46.251 7.82513 47.2533 8.36086 48.04 9.14753C48.8267 9.9342 49.3624 10.9365 49.5794 12.0276C49.7965 13.1188 49.6851 14.2498 49.2593 15.2776C48.8336 16.3054 48.1126 17.1839 47.1876 17.802C46.2626 18.4201 45.175 18.75 44.0625 18.75C42.5712 18.7483 41.1414 18.1552 40.0869 17.1006C39.0323 16.0461 38.4392 14.6163 38.4375 13.125Z" fill="black"/>
<path id="Vector_53" d="M41.25 22.5H39.375V24.375H41.25V22.5Z" fill="black"/>
<path id="Vector_54" d="M54.375 22.5H43.125V24.375H54.375V22.5Z" fill="black"/>
<path id="Vector_55" d="M54.375 28.125H47.8125V30H54.375V28.125Z" fill="black"/>
<path id="Vector_56" d="M45.9375 28.125H44.0625V30H45.9375V28.125Z" fill="black"/>
<path id="Vector_57" d="M54.375 33.75H51.5625V35.625H54.375V33.75Z" fill="black"/>
<path id="Vector_58" d="M49.6875 33.75H47.8125V35.625H49.6875V33.75Z" fill="black"/>
<path id="Vector_59" d="M54.375 39.375H51.5625V41.25H54.375V39.375Z" fill="black"/>
<path id="Vector_60" d="M49.6875 39.375H47.8125V41.25H49.6875V39.375Z" fill="black"/>
<path id="Vector_61" d="M54.375 45H48.75V46.875H54.375V45Z" fill="black"/>
<path id="Vector_62" d="M46.875 45H45V46.875H46.875V45Z" fill="black"/>
<path id="Vector_63" d="M54.375 50.625H47.8125V52.5H54.375V50.625Z" fill="black"/>
<path id="Vector_64" d="M45.9375 50.625H44.0625V52.5H45.9375V50.625Z" fill="black"/>
<path id="Vector_65" d="M46.2119 16.6005L47.5378 15.2747L45.3882 13.1251L47.5378 10.9755L46.2119 9.64966L44.0623 11.7992L41.9128 9.64966L40.5869 10.9755L42.7365 13.1251L40.5869 15.2747L41.9128 16.6005L44.0623 14.4509L46.2119 16.6005Z" fill="black"/>
</g>
</g>
</svg>
