<svg width="141" height="38" viewBox="0 0 141 38" fill="none" xmlns="http://www.w3.org/2000/svg">
<path d="M6.91841 5.73512C6.89198 5.79669 6.88316 10.6171 6.89198 16.449L6.91841 27.0485L14.6999 27.0749L22.4725 27.0925V25.2013V23.3101L16.7708 23.2925L11.0603 23.2661L11.0339 20.7328L11.0162 18.2083H16.524H22.0319V16.3171V14.4259L16.5505 14.4083L11.0603 14.3819V11.9189V9.45595L16.7708 9.42956L22.4725 9.41197V7.52077V5.62956H14.7175C8.59279 5.62956 6.94485 5.65595 6.91841 5.73512Z" fill="#1C1934"/>
<path d="M82.5306 5.71755C82.5041 5.77033 82.5041 6.72033 82.5394 7.82866L82.6011 9.85181H84.6103H86.6284V7.7407V5.62958H84.6103C83.3413 5.62958 82.5658 5.66477 82.5306 5.71755Z" fill="#1C1934"/>
<path d="M73.6194 9.07768L73.2757 10.9513L71.9274 10.9777L70.5879 11.0041V12.7545V14.5138H71.8657H73.1435V18.6481C73.1435 22.0786 73.17 22.9055 73.2845 23.4684C73.734 25.6499 75.1351 26.7494 77.7789 27.0045C78.7483 27.0925 80.3698 27.0133 81.3656 26.8198L81.8679 26.7143V25.0166V23.3101H80.7046C79.2682 23.3101 78.0873 23.1869 77.7525 23.011C77.2942 22.7735 77.2854 22.7295 77.2854 18.4721V14.5138H79.5766H81.8679V12.7545V10.9953H79.5766H77.2854V9.10407V7.21287H75.6286H73.9719L73.6194 9.07768Z" fill="#1C1934"/>
<path d="M30.519 10.7315C29.25 10.8898 28.1132 11.3912 27.276 12.1565L26.7913 12.5963V11.7958V10.9954H24.8966H23.002V21.6829V32.3704H25.0288H27.0557V28.9838C27.0557 27.119 27.0733 25.5972 27.0998 25.5972C27.1262 25.5972 27.373 25.7819 27.655 26.0106C28.2454 26.4944 29.1795 26.943 30.0255 27.1542C30.9773 27.3917 32.9777 27.3653 33.8854 27.1102C36.9962 26.213 38.7763 23.2838 38.7763 19.044C38.7763 15.3847 37.3751 12.5787 34.9693 11.4C33.7532 10.8018 32.026 10.5468 30.519 10.7315ZM32.7133 14.593C33.621 14.9449 34.185 15.7014 34.467 16.9329C34.6521 17.7509 34.6345 20.3634 34.4318 21.2079C34.0088 23.0023 33.0218 23.6972 30.8891 23.6972C29.2588 23.706 28.2366 23.3102 27.6373 22.4393C27.2231 21.8412 27.135 21.3838 27.0821 19.5718C27.0028 17.012 27.1967 16.018 27.9193 15.2792C28.6155 14.5579 29.3822 14.3292 31.0213 14.3643C31.9995 14.3907 32.2991 14.4259 32.7133 14.593Z" fill="#1C1934"/>
<path d="M45.9224 10.7403C42.5472 11.1273 40.1062 13.3088 39.3395 16.5986C39.1016 17.6102 39.0222 18.956 39.128 20.0468C39.4981 23.7236 41.4721 26.1954 44.7504 27.0662C45.4994 27.2685 45.7814 27.2949 47.0592 27.3037C48.293 27.3037 48.6367 27.2773 49.3064 27.1102C51.8709 26.4681 53.6951 24.7616 54.5411 22.2107C54.92 21.0671 55.0169 20.1875 54.9641 18.5338C54.9024 16.6338 54.5851 15.4551 53.792 14.1445C53.0782 12.9745 52.0647 12.0685 50.8046 11.4704C49.3064 10.7667 47.7466 10.5292 45.9224 10.7403ZM48.7777 14.637C50.4609 15.156 51.1394 16.669 50.9984 19.5718C50.8927 21.7269 50.3199 22.8 49.0068 23.3278C48.5662 23.5037 48.3547 23.5301 47.1033 23.5301C45.8255 23.5301 45.6404 23.5037 45.1734 23.319C44.1952 22.932 43.6576 22.2546 43.3492 21.0232C43.1817 20.381 43.1641 20.1083 43.1994 18.7449C43.2346 17.4695 43.2787 17.0912 43.4373 16.6074C43.8339 15.3759 44.6446 14.7338 46.0899 14.4787C46.5481 14.3995 48.3459 14.5051 48.7777 14.637Z" fill="#1C1934"/>
<path d="M63.3627 10.6963C61.9262 10.8722 60.6132 11.4088 59.8641 12.1301L59.397 12.5787V11.787V10.9954H57.4583H55.5195V21.6829V32.3704H57.5905H59.6614V28.931V25.4917L60.0403 25.8523C60.5074 26.3097 61.5385 26.8463 62.3933 27.0926C62.7634 27.1981 63.4684 27.3037 63.9972 27.3301C67.6367 27.5324 70.1835 25.5532 71.0383 21.8324C71.2763 20.8208 71.3644 18.3579 71.2058 17.2143C71.056 16.0884 70.7387 15.0593 70.2628 14.1268C69.4609 12.5699 67.9187 11.3384 66.2355 10.9074C65.5922 10.7403 63.9707 10.6259 63.3627 10.6963ZM65.3719 14.637C66.6762 15.2352 67.1608 16.3963 67.1697 19C67.1697 20.9968 66.9053 22.0523 66.2091 22.7912C65.7332 23.3014 65.1604 23.5565 64.1998 23.6796C62.6312 23.8907 61.1507 23.4949 60.4105 22.6768C59.7495 21.9468 59.7055 21.6917 59.7055 18.956C59.7055 16.581 59.7055 16.581 59.9346 16.0972C60.2342 15.4463 60.6132 15.0417 61.1155 14.7866C61.8733 14.4083 62.2699 14.3468 63.583 14.3643C64.7286 14.3907 64.8608 14.4083 65.3719 14.637Z" fill="#1C1934"/>
<path d="M93.0607 10.7315C91.3422 10.969 89.8089 11.8046 88.8747 13.0097C87.685 14.5579 87.1387 16.4755 87.1387 19.044C87.1387 23.4421 88.8924 26.2657 92.1794 27.1542C93.0783 27.3917 95.0875 27.3741 96.0129 27.1102C96.8941 26.8551 97.7313 26.4153 98.3305 25.8963L98.7888 25.4917V28.931V32.3704H100.816H102.843V21.6829V10.9954H100.948H99.0532V11.7958V12.5963L98.5332 12.1213C97.9164 11.5671 97.0968 11.1361 96.1979 10.9074C95.4136 10.7139 93.8626 10.6259 93.0607 10.7315ZM96.4623 14.4611C97.5286 14.7426 98.1895 15.2968 98.542 16.1852C98.7183 16.6162 98.7359 16.8713 98.7712 18.6833C98.7976 20.0292 98.7712 20.8824 98.7007 21.2343C98.4539 22.4833 97.7665 23.2134 96.5416 23.5389C95.3343 23.8643 93.8626 23.7676 92.902 23.3014C91.9062 22.8176 91.4656 21.9204 91.2894 20.0819C91.1748 18.8241 91.2894 17.2935 91.5625 16.4315C91.8798 15.4111 92.5584 14.725 93.5013 14.4787C94.127 14.3116 95.863 14.3028 96.4623 14.4611Z" fill="#1C1934"/>
<path d="M125.201 10.7315C123.403 11.057 121.799 11.9366 120.777 13.1681C120.178 13.8894 119.473 15.288 119.243 16.194C118.715 18.2963 118.812 20.8385 119.508 22.7297C120.38 25.1135 122.204 26.644 124.778 27.1278C125.747 27.3125 127.792 27.3125 128.752 27.1278C130.911 26.7232 132.594 25.6324 133.396 24.1283C133.784 23.4158 133.951 22.7121 133.951 21.8412V21.1111H131.925H129.898V21.5861C129.898 22.5274 129.501 23.0287 128.532 23.3366C127.73 23.5829 125.818 23.6093 125.051 23.3718C123.755 22.9848 123.112 22.1403 122.883 20.557L122.83 20.1436H128.338C133.361 20.1436 133.846 20.1348 133.899 20.0028C133.934 19.9236 134.004 19.3607 134.057 18.7625C134.436 14.725 132.621 11.8662 129.052 10.9074C128.267 10.6963 125.967 10.5908 125.201 10.7315ZM128.047 14.3908C129.298 14.6723 129.933 15.3848 130.127 16.7306L130.18 17.1528H126.549H122.909L122.962 16.8098C123.024 16.3524 123.412 15.4991 123.711 15.1912C124.046 14.8394 124.575 14.5403 125.139 14.3908C125.791 14.2149 127.289 14.2149 128.047 14.3908Z" fill="#1C1934"/>
<path d="M82.5742 18.9999V27.0925L84.6275 27.0749L86.672 27.0485L86.6985 18.9735L86.7161 10.9073H84.6452H82.5742V18.9999Z" fill="#1C1934"/>
<path d="M103.283 16.0797C103.283 22.2635 103.336 22.8264 104.068 24.3218C104.878 25.9579 106.324 26.9695 108.306 27.2774C109.117 27.4005 110.624 27.3301 111.347 27.1366C112.492 26.8287 113.7 26.0899 114.264 25.3422L114.519 24.9991L114.563 26.0195L114.607 27.0487L116.528 27.075L118.441 27.0926V19.044V10.9954H116.37H114.299V15.9917C114.299 20.2139 114.281 21.0672 114.167 21.507C113.893 22.545 113.277 23.1871 112.254 23.495C111.4 23.7588 109.628 23.7061 108.958 23.407C108.139 23.0463 107.698 22.3954 107.522 21.2871C107.46 20.9352 107.425 18.8329 107.425 15.851V10.9954H105.354H103.283V16.0797Z" fill="#1C1934"/>
</svg>
