<svg width="60" height="61" viewBox="0 0 60 61" fill="none" xmlns="http://www.w3.org/2000/svg">
<g clip-path="url(#clip0_361_2014)">
<path d="M13.74 15.24C11.6026 17.3739 9.90702 19.9085 8.75047 22.6987C7.59392 25.4888 6.99909 28.4797 7.00004 31.5V32.5C7.00004 32.7652 6.89468 33.0196 6.70714 33.2071C6.51961 33.3946 6.26525 33.5 6.00004 33.5H2.00004C1.73482 33.5 1.48047 33.3946 1.29293 33.2071C1.10539 33.0196 1.00004 32.7652 1.00004 32.5V31.5C0.993933 27.6905 1.74086 23.9174 3.19787 20.3976C4.65489 16.8777 6.79325 13.6806 9.49004 10.99L13.74 15.24Z" fill="#EA6969"/>
<path d="M30.0002 2.50004V8.50004C26.9799 8.49909 23.989 9.09392 21.1989 10.2505C18.4088 11.407 15.8742 13.1026 13.7402 15.24L9.49023 10.99C12.1809 8.29325 15.378 6.15489 18.8978 4.69787C22.4177 3.24086 26.1908 2.49393 30.0002 2.50004Z" fill="#F88A72"/>
<path d="M50.51 10.99L46.25 15.25C44.1211 13.1079 41.5891 11.4085 38.8 10.25C36.011 9.09143 33.0201 8.49668 30 8.50004V2.50004C33.8095 2.49393 37.5826 3.24086 41.1024 4.69787C44.6222 6.15489 47.8194 8.29325 50.51 10.99Z" fill="#FCD576"/>
<path d="M50.51 10.99C53.2068 13.6806 55.3451 16.8777 56.8022 20.3976C58.2592 23.9174 59.0061 27.6905 59 31.5V32.5C59 32.7652 58.8946 33.0196 58.7071 33.2071C58.5196 33.3946 58.2652 33.5 58 33.5H54C53.7348 33.5 53.4804 33.3946 53.2929 33.2071C53.1054 33.0196 53 32.7652 53 32.5V31.5C53.0016 29.7388 52.7969 27.9835 52.39 26.27L51.66 23.78C50.5135 20.5697 48.6653 17.6556 46.25 15.25L50.51 10.99Z" fill="#55CBA9"/>
<path d="M31.1291 35.337C38.933 32.9621 46.4405 29.7047 53.5061 25.628C53.7094 25.5138 53.868 25.334 53.9559 25.118C54.0438 24.902 54.0559 24.6626 53.9903 24.4388C53.9246 24.2151 53.785 24.0202 53.5942 23.886C53.4035 23.7518 53.1729 23.6863 52.9401 23.7C44.7928 24.1013 36.7177 25.4295 28.8711 27.659L31.1291 35.337Z" fill="#4D758E"/>
<path d="M30 35.5C32.2091 35.5 34 33.7091 34 31.5C34 29.2909 32.2091 27.5 30 27.5C27.7909 27.5 26 29.2909 26 31.5C26 33.7091 27.7909 35.5 30 35.5Z" fill="#5E8FAA"/>
<path d="M39 59.5C43.4183 59.5 47 55.9183 47 51.5C47 47.0817 43.4183 43.5 39 43.5C34.5817 43.5 31 47.0817 31 51.5C31 55.9183 34.5817 59.5 39 59.5Z" fill="#F1F3F5"/>
<path d="M32.6601 45.119C32.6531 45.126 32.6431 45.128 32.6361 45.136C32.6291 45.144 32.6261 45.153 32.6191 45.16C30.9418 46.8437 30 49.1234 30 51.5C30 53.8766 30.9418 56.1563 32.6191 57.84C32.6261 57.847 32.6281 57.857 32.6361 57.864C32.6441 57.871 32.6531 57.874 32.6601 57.881C34.3438 59.5583 36.6235 60.5001 39.0001 60.5001C41.3767 60.5001 43.6565 59.5583 45.3401 57.881C45.3471 57.874 45.3571 57.872 45.3641 57.864C45.3711 57.856 45.3741 57.847 45.3811 57.84C47.0585 56.1563 48.0003 53.8766 48.0003 51.5C48.0003 49.1234 47.0585 46.8437 45.3811 45.16C45.3741 45.153 45.3721 45.143 45.3641 45.136C45.3561 45.129 45.3471 45.126 45.3401 45.119C43.901 43.6861 42.0185 42.7836 40.0001 42.559V40.5H41.0001C41.2654 40.5 41.5197 40.3946 41.7072 40.2071C41.8948 40.0196 42.0001 39.7652 42.0001 39.5C42.0001 39.2348 41.8948 38.9804 41.7072 38.7929C41.5197 38.6054 41.2654 38.5 41.0001 38.5H37.0001C36.7349 38.5 36.4806 38.6054 36.293 38.7929C36.1055 38.9804 36.0001 39.2348 36.0001 39.5C36.0001 39.7652 36.1055 40.0196 36.293 40.2071C36.4806 40.3946 36.7349 40.5 37.0001 40.5H38.0001V42.559C35.9818 42.7836 34.0992 43.6861 32.6601 45.119ZM42.5351 47.965C42.7227 48.1525 42.977 48.2578 43.2421 48.2578C43.5073 48.2578 43.7616 48.1525 43.9491 47.965L44.5981 47.316C45.2993 48.2494 45.754 49.3444 45.9201 50.5H45.0001C44.7349 50.5 44.4806 50.6054 44.293 50.7929C44.1055 50.9804 44.0001 51.2348 44.0001 51.5C44.0001 51.7652 44.1055 52.0196 44.293 52.2071C44.4806 52.3946 44.7349 52.5 45.0001 52.5H45.9201C45.7546 53.6554 45.3006 54.7504 44.6001 55.684L43.9511 55.035C43.7625 54.8528 43.5099 54.752 43.2477 54.7543C42.9855 54.7566 42.7347 54.8618 42.5493 55.0472C42.3639 55.2326 42.2587 55.4834 42.2565 55.7456C42.2542 56.0078 42.355 56.2604 42.5371 56.449L43.1861 57.098C42.2522 57.7995 41.1564 58.2542 40.0001 58.42V57.5C40.0001 57.2348 39.8948 56.9804 39.7072 56.7929C39.5197 56.6054 39.2654 56.5 39.0001 56.5C38.7349 56.5 38.4806 56.6054 38.293 56.7929C38.1055 56.9804 38.0001 57.2348 38.0001 57.5V58.42C36.8448 58.2545 35.7497 57.8005 34.8161 57.1L35.4651 56.451C35.6473 56.2624 35.7481 56.0098 35.7458 55.7476C35.7435 55.4854 35.6384 55.2346 35.453 55.0492C35.2676 54.8638 35.0167 54.7586 34.7545 54.7563C34.4923 54.754 34.2397 54.8548 34.0511 55.037L33.4021 55.686C32.7006 54.752 32.246 53.6563 32.0801 52.5H33.0001C33.2654 52.5 33.5197 52.3946 33.7072 52.2071C33.8948 52.0196 34.0001 51.7652 34.0001 51.5C34.0001 51.2348 33.8948 50.9804 33.7072 50.7929C33.5197 50.6054 33.2654 50.5 33.0001 50.5H32.0801C32.2457 49.3446 32.6997 48.2496 33.4001 47.316L34.0491 47.965C34.2377 48.1472 34.4903 48.248 34.7525 48.2457C35.0147 48.2434 35.2656 48.1382 35.451 47.9528C35.6364 47.7674 35.7415 47.5166 35.7438 47.2544C35.7461 46.9922 35.6453 46.7396 35.4631 46.551L34.8141 45.902C35.7481 45.2005 36.8439 44.7458 38.0001 44.58V45.5C38.0001 45.7652 38.1055 46.0196 38.293 46.2071C38.4806 46.3946 38.7349 46.5 39.0001 46.5C39.2654 46.5 39.5197 46.3946 39.7072 46.2071C39.8948 46.0196 40.0001 45.7652 40.0001 45.5V44.58C41.1555 44.7455 42.2505 45.1995 43.1841 45.9L42.5351 46.549C42.442 46.6419 42.3681 46.7522 42.3177 46.8737C42.2673 46.9952 42.2414 47.1255 42.2414 47.257C42.2414 47.3885 42.2673 47.5188 42.3177 47.6403C42.3681 47.7618 42.442 47.8721 42.5351 47.965Z" fill="#373737"/>
<path d="M40.2172 51.3L40.8952 49.944C41.0138 49.7066 41.0332 49.4319 40.9492 49.1802C40.8652 48.9285 40.6846 48.7206 40.4472 48.602C40.2099 48.4834 39.9351 48.464 39.6835 48.5481C39.4318 48.6321 39.2238 48.8126 39.1052 49.05L38.1052 51.05C38.0115 51.2378 37.9793 51.4502 38.013 51.6573C38.0468 51.8644 38.1448 52.0557 38.2932 52.204L39.2932 53.204C39.4818 53.3862 39.7344 53.487 39.9966 53.4847C40.2588 53.4824 40.5097 53.3772 40.6951 53.1918C40.8805 53.0064 40.9856 52.7556 40.9879 52.4934C40.9902 52.2312 40.8894 51.9786 40.7072 51.79L40.2172 51.3Z" fill="#373737"/>
<path d="M51.9772 10.938C52.1648 10.7504 52.2702 10.4959 52.2702 10.2305C52.2702 9.96514 52.1648 9.71064 51.9772 9.523C51.7895 9.33536 51.535 9.22994 51.2697 9.22994C51.0043 9.22994 50.7498 9.33536 50.5622 9.523L50.4792 9.607C45.1843 4.63495 38.2597 1.76185 31.0002 1.525V1.5C31.0002 1.23478 30.8948 0.98043 30.7073 0.792893C30.5197 0.605357 30.2654 0.5 30.0002 0.5C29.735 0.5 29.4806 0.605357 29.2931 0.792893C29.1055 0.98043 29.0002 1.23478 29.0002 1.5V1.524C21.7359 1.7401 14.8032 4.61364 9.51617 9.6L9.43817 9.521C9.25053 9.33336 8.99603 9.22794 8.73067 9.22794C8.46531 9.22794 8.21081 9.33336 8.02317 9.521C7.83553 9.70864 7.73011 9.96314 7.73011 10.2285C7.73011 10.4939 7.83553 10.7484 8.02317 10.936L8.79317 11.705L12.3452 15.257C8.26059 19.6794 5.99473 25.4799 6.00017 31.5V32.5H2.00017V31.5C1.97916 25.3275 4.01775 19.3243 7.79317 14.441C7.95495 14.2307 8.02656 13.9647 7.99224 13.7016C7.95792 13.4385 7.82049 13.1998 7.61017 13.038C7.39985 12.8762 7.13388 12.8046 6.87077 12.8389C6.60766 12.8732 6.36895 13.0107 6.20717 13.221C2.16209 18.4537 -0.0221655 24.8861 0.000169602 31.5V32.5C0.000169602 33.0304 0.210883 33.5391 0.585956 33.9142C0.961029 34.2893 1.46974 34.5 2.00017 34.5H6.00017C6.5306 34.5 7.03931 34.2893 7.41438 33.9142C7.78946 33.5391 8.00017 33.0304 8.00017 32.5V31.5C7.99605 26.0112 10.0519 20.7208 13.7612 16.675L13.7932 16.707C13.9818 16.8892 14.2344 16.99 14.4966 16.9877C14.7588 16.9854 15.0096 16.8802 15.195 16.6948C15.3804 16.5094 15.4856 16.2586 15.4878 15.9964C15.4901 15.7342 15.3893 15.4816 15.2072 15.293L15.1752 15.261C18.9688 11.7846 23.8647 9.75401 29.0052 9.525C29.0113 9.78323 29.1178 10.0289 29.302 10.21C29.4861 10.3911 29.7336 10.4934 29.9919 10.4952C30.2502 10.4971 30.499 10.3983 30.6858 10.2198C30.8725 10.0413 30.9824 9.79712 30.9922 9.539C36.1282 9.7751 41.0192 11.8032 44.8152 15.271L44.7932 15.293C44.6977 15.3852 44.6215 15.4956 44.5691 15.6176C44.5167 15.7396 44.4891 15.8708 44.4879 16.0036C44.4868 16.1364 44.5121 16.2681 44.5623 16.391C44.6126 16.5139 44.6869 16.6255 44.7808 16.7194C44.8747 16.8133 44.9863 16.8875 45.1092 16.9378C45.2321 16.9881 45.3638 17.0134 45.4966 17.0123C45.6293 17.0111 45.7606 16.9835 45.8826 16.9311C46.0046 16.8787 46.1149 16.8025 46.2072 16.707L46.2352 16.679C47.9043 18.5058 49.252 20.6021 50.2212 22.879C48.9632 22.979 47.5462 23.103 45.9962 23.279C44.1531 19.687 41.1554 16.8194 37.4852 15.1373C33.8151 13.4553 29.6858 13.0567 25.7617 14.0057C21.8375 14.9546 18.3467 17.1959 15.8506 20.3691C13.3545 23.5422 11.9983 27.4628 12.0002 31.5C12.0002 31.7652 12.1055 32.0196 12.2931 32.2071C12.4806 32.3946 12.735 32.5 13.0002 32.5C13.2654 32.5 13.5197 32.3946 13.7073 32.2071C13.8948 32.0196 14.0002 31.7652 14.0002 31.5C13.9985 27.9747 15.1617 24.5476 17.3088 21.7516C19.456 18.9556 22.4668 16.9474 25.8731 16.0392C29.2794 15.131 32.8904 15.3738 36.1445 16.7297C39.3986 18.0856 42.1136 20.4788 43.8672 23.537C38.7011 24.1991 33.5935 25.2565 28.5892 26.7L28.5952 26.723C27.4385 27.0563 26.4415 27.7968 25.7882 28.8077C25.1348 29.8186 24.8692 31.0318 25.0404 32.2233C25.2116 33.4147 25.8081 34.504 26.7197 35.2901C27.6313 36.0762 28.7965 36.5059 30.0002 36.5C30.477 36.4932 30.9503 36.4171 31.4052 36.274L31.4112 36.296C36.4013 34.8002 41.2692 32.9237 45.9722 30.683C45.9852 30.949 46.0002 31.214 46.0002 31.5C46.0002 31.7652 46.1055 32.0196 46.2931 32.2071C46.4806 32.3946 46.735 32.5 47.0002 32.5C47.2654 32.5 47.5197 32.3946 47.7073 32.2071C47.8948 32.0196 48.0002 31.7652 48.0002 31.5C47.9976 30.9153 47.9642 30.3312 47.9002 29.75C49.3002 29.05 50.5672 28.394 51.6782 27.791C51.8919 29.0158 51.9996 30.2567 52.0002 31.5V32.5C52.0002 33.0304 52.2109 33.5391 52.586 33.9142C52.961 34.2893 53.4697 34.5 54.0002 34.5H58.0002C58.5306 34.5 59.0393 34.2893 59.4144 33.9142C59.7895 33.5391 60.0002 33.0304 60.0002 32.5V31.5C60.0043 23.8904 57.1048 16.5659 51.8932 11.021L51.9772 10.938ZM10.9302 11.016C15.8419 6.40418 22.2661 3.74063 29.0002 3.524V7.524C23.3313 7.75655 17.9299 9.99737 13.7612 13.846L10.9302 11.016ZM31.0002 7.539V3.525C37.7293 3.7615 44.1459 6.42353 49.0662 11.02L46.2302 13.856C42.0588 10.0178 36.6635 7.78003 31.0002 7.539ZM34.7002 33.139C35.061 32.1579 35.0963 31.0867 34.8007 30.084C34.5052 29.0813 33.8945 28.2005 33.0592 27.572C39.6019 25.9931 46.282 25.0507 53.0062 24.758C47.1737 28.1072 41.046 30.9137 34.7002 33.142V33.139ZM27.0002 31.5C27.0002 30.9067 27.1761 30.3266 27.5058 29.8333C27.8354 29.3399 28.3039 28.9554 28.8521 28.7284C29.4003 28.5013 30.0035 28.4419 30.5854 28.5576C31.1674 28.6734 31.7019 28.9591 32.1215 29.3787C32.541 29.7982 32.8268 30.3328 32.9425 30.9147C33.0583 31.4967 32.9989 32.0999 32.7718 32.648C32.5447 33.1962 32.1602 33.6648 31.6669 33.9944C31.1735 34.3241 30.5935 34.5 30.0002 34.5C29.2045 34.5 28.4415 34.1839 27.8788 33.6213C27.3162 33.0587 27.0002 32.2956 27.0002 31.5ZM58.0002 31.5V32.5H54.0002V31.5C53.9973 29.9124 53.8348 28.3291 53.5152 26.774L54.0002 26.5C54.3963 26.2732 54.7044 25.9195 54.8748 25.4961C55.0452 25.0726 55.0679 24.6041 54.9392 24.1662C54.8106 23.7282 54.5381 23.3464 54.1658 23.0824C53.7935 22.8184 53.343 22.6875 52.8872 22.711L52.3152 22.742C51.2349 19.9836 49.6509 17.4502 47.6442 15.271L50.4762 12.439C55.3121 17.6077 58.0019 24.4217 58.0002 31.5Z" fill="#373737"/>
<path d="M28 42.5H18C17.7348 42.5 17.4804 42.6054 17.2929 42.7929C17.1054 42.9804 17 43.2348 17 43.5C17 43.7652 17.1054 44.0196 17.2929 44.2071C17.4804 44.3946 17.7348 44.5 18 44.5H28C28.2652 44.5 28.5196 44.3946 28.7071 44.2071C28.8946 44.0196 29 43.7652 29 43.5C29 43.2348 28.8946 42.9804 28.7071 42.7929C28.5196 42.6054 28.2652 42.5 28 42.5Z" fill="#373737"/>
<path d="M14 42.5H13C12.7348 42.5 12.4804 42.6054 12.2929 42.7929C12.1054 42.9804 12 43.2348 12 43.5C12 43.7652 12.1054 44.0196 12.2929 44.2071C12.4804 44.3946 12.7348 44.5 13 44.5H14C14.2652 44.5 14.5196 44.3946 14.7071 44.2071C14.8946 44.0196 15 43.7652 15 43.5C15 43.2348 14.8946 42.9804 14.7071 42.7929C14.5196 42.6054 14.2652 42.5 14 42.5Z" fill="#373737"/>
<path d="M15 48.5C15 48.7652 15.1054 49.0196 15.2929 49.2071C15.4804 49.3946 15.7348 49.5 16 49.5H26C26.2652 49.5 26.5196 49.3946 26.7071 49.2071C26.8946 49.0196 27 48.7652 27 48.5C27 48.2348 26.8946 47.9804 26.7071 47.7929C26.5196 47.6054 26.2652 47.5 26 47.5H16C15.7348 47.5 15.4804 47.6054 15.2929 47.7929C15.1054 47.9804 15 48.2348 15 48.5Z" fill="#373737"/>
<path d="M11 47.5C10.7348 47.5 10.4804 47.6054 10.2929 47.7929C10.1054 47.9804 10 48.2348 10 48.5C10 48.7652 10.1054 49.0196 10.2929 49.2071C10.4804 49.3946 10.7348 49.5 11 49.5H12C12.2652 49.5 12.5196 49.3946 12.7071 49.2071C12.8946 49.0196 13 48.7652 13 48.5C13 48.2348 12.8946 47.9804 12.7071 47.7929C12.5196 47.6054 12.2652 47.5 12 47.5H11Z" fill="#373737"/>
<path d="M22 59.5H28C28.2652 59.5 28.5196 59.3946 28.7071 59.2071C28.8946 59.0196 29 58.7652 29 58.5C29 58.2348 28.8946 57.9804 28.7071 57.7929C28.5196 57.6054 28.2652 57.5 28 57.5H22C21.7348 57.5 21.4804 57.6054 21.2929 57.7929C21.1054 57.9804 21 58.2348 21 58.5C21 58.7652 21.1054 59.0196 21.2929 59.2071C21.4804 59.3946 21.7348 59.5 22 59.5Z" fill="#373737"/>
<path d="M17 57.5C16.7348 57.5 16.4804 57.6054 16.2929 57.7929C16.1054 57.9804 16 58.2348 16 58.5C16 58.7652 16.1054 59.0196 16.2929 59.2071C16.4804 59.3946 16.7348 59.5 17 59.5H18C18.2652 59.5 18.5196 59.3946 18.7071 59.2071C18.8946 59.0196 19 58.7652 19 58.5C19 58.2348 18.8946 57.9804 18.7071 57.7929C18.5196 57.6054 18.2652 57.5 18 57.5H17Z" fill="#373737"/>
<path d="M27 53.5C27 53.2348 26.8946 52.9804 26.7071 52.7929C26.5196 52.6054 26.2652 52.5 26 52.5H18C17.7348 52.5 17.4804 52.6054 17.2929 52.7929C17.1054 52.9804 17 53.2348 17 53.5C17 53.7652 17.1054 54.0196 17.2929 54.2071C17.4804 54.3946 17.7348 54.5 18 54.5H26C26.2652 54.5 26.5196 54.3946 26.7071 54.2071C26.8946 54.0196 27 53.7652 27 53.5Z" fill="#373737"/>
<path d="M14 52.5H13C12.7348 52.5 12.4804 52.6054 12.2929 52.7929C12.1054 52.9804 12 53.2348 12 53.5C12 53.7652 12.1054 54.0196 12.2929 54.2071C12.4804 54.3946 12.7348 54.5 13 54.5H14C14.2652 54.5 14.5196 54.3946 14.7071 54.2071C14.8946 54.0196 15 53.7652 15 53.5C15 53.2348 14.8946 52.9804 14.7071 52.7929C14.5196 52.6054 14.2652 52.5 14 52.5Z" fill="#373737"/>
</g>
<defs>
<clipPath id="clip0_361_2014">
<rect width="60" height="60" fill="white" transform="translate(0 0.5)"/>
</clipPath>
</defs>
</svg>
