<svg width="24" height="24" viewBox="0 0 24 24" fill="none" xmlns="http://www.w3.org/2000/svg">
<path d="M1.17147e-07 11.7322C3.80726e-07 17.7622 12 11.7322 12 11.7322C12 11.7322 -1.46433e-07 5.70225 1.17147e-07 11.7322Z" fill="#E55733"/>
<path d="M24 11.7322C24 17.7622 12 11.7322 12 11.7322C12 11.7322 24 5.70225 24 11.7322Z" fill="#E55733"/>
<path d="M6.00064 22.1247C11.2228 25.1397 12.0006 11.7324 12.0006 11.7324C12.0006 11.7324 0.778502 19.1097 6.00064 22.1247Z" fill="#E55733"/>
<path d="M18.0006 1.34C23.2228 4.355 12.0006 11.7323 12.0006 11.7323C12.0006 11.7323 12.7785 -1.675 18.0006 1.34Z" fill="#E55733"/>
<path d="M17.9994 22.1247C12.7772 25.1397 11.9994 11.7324 11.9994 11.7324C11.9994 11.7324 23.2215 19.1097 17.9994 22.1247Z" fill="#E55733"/>
<path d="M5.99936 1.34C0.777231 4.355 11.9994 11.7323 11.9994 11.7323C11.9994 11.7323 11.2215 -1.675 5.99936 1.34Z" fill="#E55733"/>
</svg>
