<svg width="34" height="34" viewBox="0 0 34 34" fill="none" xmlns="http://www.w3.org/2000/svg">
<circle cx="17" cy="17" r="17" fill="#E48634" fill-opacity="0.2"/>
<g clip-path="url(#clip0_405_3320)">
<path fill-rule="evenodd" clip-rule="evenodd" d="M20.1888 25.5964C21.9436 24.9449 23.4569 23.7721 24.5256 22.2354C25.5944 20.6986 26.1672 18.8717 26.1673 16.9999C26.1673 11.9372 22.0634 7.83325 17.0007 7.83325C11.9379 7.83325 7.83398 11.9372 7.83398 16.9999C7.83398 22.0627 11.9379 26.1666 17.0007 26.1666C17.9915 26.1677 18.976 26.0079 19.9157 25.6936C20.0113 25.6759 20.1035 25.6431 20.1888 25.5964ZM17.0007 9.66659C15.5269 9.66428 14.0869 10.1082 12.8702 10.9398C12.8738 10.9728 12.8757 11.0068 12.8757 11.0416V14.2683C12.8755 14.4646 12.9384 14.6558 13.055 14.8138C13.1717 14.9717 13.336 15.088 13.5237 15.1455L14.7072 15.5067L14.5467 14.546C14.4314 13.8545 14.5846 13.145 14.975 12.5626C15.3653 11.9803 15.9633 11.569 16.6468 11.4128L17.0144 11.3294C17.1869 11.29 17.3442 11.2015 17.4675 11.0746C17.5908 10.9478 17.6748 10.7879 17.7092 10.6144L17.8889 9.71975C17.5942 9.68425 17.2975 9.66649 17.0007 9.66659ZM11.0423 14.2683V12.7237C10.1745 13.932 9.6947 15.3757 9.66663 16.8631C9.63856 18.3505 10.0635 19.8113 10.8851 21.0515C11.7067 22.2917 12.8861 23.2527 14.2667 23.807C15.6473 24.3612 17.1638 24.4824 18.6149 24.1545L18.0832 22.2918C18.0402 22.1421 17.9598 22.0058 17.8495 21.8958L16.7147 20.7601C16.5779 20.6234 16.4715 20.4594 16.4024 20.2787C16.3333 20.0981 16.3031 19.905 16.3137 19.7119C16.3244 19.5188 16.3756 19.3301 16.4641 19.1582C16.5526 18.9863 16.6764 18.8349 16.8274 18.7141L18.262 17.5673C18.5355 17.3485 18.8659 17.2127 19.2142 17.1758C19.5625 17.1389 19.9141 17.2026 20.2273 17.3593L21.5748 18.033C21.9797 18.2355 22.3283 18.5348 22.5898 18.9043C22.8512 19.2739 23.0174 19.7022 23.0736 20.1514L23.1744 20.959C23.7602 20.0452 24.1359 19.0127 24.2744 17.9361C24.4129 16.8595 24.3107 15.7656 23.9753 14.7332C23.6399 13.7009 23.0796 12.7558 22.3348 11.9662C21.5899 11.1766 20.6792 10.5621 19.6682 10.1671L19.5068 10.9747C19.4028 11.4944 19.1508 11.9731 18.7812 12.353C18.4115 12.7329 17.94 12.9978 17.4232 13.116L17.0557 13.2003C16.8276 13.2523 16.6281 13.3895 16.4979 13.5837C16.3677 13.778 16.3167 14.0147 16.3553 14.2453L16.5157 15.206C16.5668 15.5139 16.5385 15.8298 16.4333 16.1237C16.3282 16.4176 16.1498 16.6798 15.9149 16.8854C15.6801 17.0911 15.3967 17.2333 15.0915 17.2988C14.7862 17.3642 14.4694 17.3506 14.1709 17.2593L12.9884 16.8982C12.4252 16.726 11.9321 16.3775 11.5817 15.9041C11.2314 15.4306 11.0423 14.8572 11.0423 14.2683ZM21.551 22.7511C21.1751 23.0492 20.7707 23.3096 20.3437 23.5284L19.846 21.7886C19.7178 21.339 19.4771 20.9295 19.1466 20.5988L18.3729 19.826L19.4069 18.9992L20.7544 19.6729C20.8895 19.7403 21.0059 19.8399 21.0932 19.9631C21.1805 20.0862 21.236 20.229 21.2549 20.3788L21.551 22.7511Z" fill="#E48634"/>
</g>
<defs>
<clipPath id="clip0_405_3320">
<rect width="22" height="22" fill="white" transform="translate(6 6)"/>
</clipPath>
</defs>
</svg>
