<svg width="96" height="97" viewBox="0 0 96 97" fill="none" xmlns="http://www.w3.org/2000/svg">
<path d="M85.0486 53.2722C82.705 50.9286 78.907 50.9286 76.5634 53.2722L76.2994 53.5362L77.3758 52.4598C79.7194 50.1162 79.7194 46.3182 77.3758 43.9746C75.2626 41.8614 71.9734 41.673 69.6274 43.3722L69.5794 43.2966L69.5758 43.2894L69.739 43.1262C72.0826 40.7826 72.0826 36.9846 69.739 34.641C67.6102 32.5122 64.291 32.3394 61.9426 34.0782C61.927 34.0614 61.9006 34.0326 61.8826 34.0122L73.9822 21.9126C76.3258 19.569 76.3258 15.771 73.9822 13.4274C71.6386 11.0838 67.8406 11.0838 65.497 13.4274L51.7726 27.1518C51.667 27.2094 51.553 27.2526 51.463 27.3426L33.1342 45.6714L30.6418 48.1542L26.323 32.0346C25.2994 28.215 21.373 25.9482 17.5534 26.9718L17.4766 26.9922C13.657 28.0158 11.3902 31.9422 12.4138 35.7618L21.0826 68.115C21.6682 71.5482 23.2714 74.841 25.9222 77.4918L34.4074 85.977C41.641 93.2106 53.4778 93.2106 60.7114 85.977L78.5386 68.1498C78.6598 68.0754 78.7882 68.019 78.8926 67.9146L85.0486 61.7586C87.3922 59.4138 87.3922 55.6158 85.0486 53.2722Z" fill="#FFEEA3"/>
<path d="M47.561 92.0012C42.4178 92.0012 37.595 90.0116 33.9842 86.3996L25.499 77.9144C22.691 75.1064 21.3998 71.4656 20.507 68.2748L12.0326 35.8472C11.2406 31.3172 13.4186 27.4568 17.321 26.4116C18.0578 26.2136 18.7358 26.1248 19.4114 26.1248C22.9154 26.1248 25.9946 28.49 26.903 31.8776L30.9542 46.9964L51.0386 26.918C51.1754 26.7812 51.3194 26.708 51.4262 26.6552L65.0738 13.0028C66.3206 11.756 67.9778 11.0696 69.7418 11.0696C71.5046 11.0696 73.163 11.756 74.4086 13.0028C75.6554 14.2496 76.3418 15.9068 76.3418 17.6696C76.3418 19.4324 75.6554 21.0908 74.4086 22.3364L64.3454 32.3996C66.4226 32.0252 68.6438 32.6936 70.1666 34.2152C72.233 36.2828 72.641 39.3908 71.387 41.8664C71.9606 41.708 72.5558 41.6264 73.1618 41.6264C74.9162 41.6264 76.5638 42.3092 77.8022 43.5488C79.049 44.7956 79.7354 46.4528 79.7354 48.2156C79.7354 49.25 79.499 50.2484 79.0514 51.1496C79.6166 50.9948 80.2058 50.9144 80.8082 50.9144C82.571 50.9144 84.2294 51.6008 85.475 52.8476C86.7218 54.0944 87.4082 55.7516 87.4082 57.5144C87.4082 59.2772 86.7218 60.9356 85.475 62.1812L79.319 68.3372C79.1858 68.4716 79.0406 68.5532 78.935 68.612L61.139 86.3984C57.5258 90.0128 52.703 92.0012 47.561 92.0012ZM19.4114 27.3248C18.8402 27.3248 18.2678 27.4004 17.7098 27.5504C14.3534 28.4504 12.533 31.7492 13.2026 35.5928L21.6638 67.9628C22.5122 70.994 23.735 74.4548 26.3462 77.0672L34.8314 85.5524C38.2166 88.9376 42.737 90.8024 47.5598 90.8024C52.3826 90.8024 56.9018 88.9376 60.287 85.5524L78.341 67.5704C78.3914 67.5416 78.449 67.5092 78.467 67.4912L84.623 61.3352C85.6442 60.3152 86.2046 58.9592 86.2046 57.5168C86.2046 56.0744 85.643 54.7184 84.623 53.6984C83.603 52.6784 82.2482 52.1168 80.8046 52.1168C79.361 52.1168 78.0062 52.6784 76.9862 53.6984L76.7222 53.9624L75.8738 53.114L76.949 52.0376C77.9702 51.0176 78.5306 49.6616 78.5306 48.2192C78.5306 46.7768 77.969 45.4208 76.949 44.4008C75.1238 42.5756 72.0686 42.3464 69.977 43.8596L69.4586 44.2352L69.0254 43.5476L68.9738 43.0424L69.3122 42.704C71.417 40.5992 71.417 37.172 69.3122 35.0672C67.4714 33.2264 64.3862 33.0152 62.297 34.5632L61.8578 34.8884L61.1138 34.058L61.4558 33.59L73.5542 21.4904C74.5754 20.4704 75.1358 19.1144 75.1358 17.672C75.1358 16.2296 74.5742 14.8736 73.5542 13.8536C72.5342 12.8336 71.1794 12.272 69.7358 12.272C68.2922 12.272 66.9374 12.8336 65.9162 13.8536L30.3302 49.31L25.7426 32.1884C24.9758 29.3252 22.373 27.3248 19.4114 27.3248Z" fill="#BA9B48"/>
<path d="M70.59 41.4283L71.4384 42.2767L64.65 49.0651L63.8016 48.2167L70.59 41.4283ZM62.868 32.1799L63.7164 33.0283L56.1648 40.5799L55.3164 39.7315L62.868 32.1799ZM78.1344 50.8555L78.9828 51.7039L73.1364 57.5503L72.288 56.7019L78.1344 50.8555Z" fill="#BA9B48"/>
<path d="M43.199 24.8467C42.7382 24.8467 42.2774 24.6715 41.9258 24.3199C41.2226 23.6179 41.2226 22.4767 41.9258 21.7747L52.7258 10.9747C53.429 10.2715 54.5678 10.2715 55.271 10.9747C55.9742 11.6767 55.9742 12.8179 55.271 13.5199L44.471 24.3199C44.1206 24.6715 43.6598 24.8467 43.199 24.8467Z" fill="#BA9B48"/>
<path d="M29.999 24.8467C29.5382 24.8467 29.0774 24.6715 28.7258 24.3199L17.9258 13.5199C17.2226 12.8179 17.2226 11.6767 17.9258 10.9747C18.629 10.2715 19.7678 10.2715 20.471 10.9747L31.271 21.7747C31.9742 22.4767 31.9742 23.6179 31.271 24.3199C30.9206 24.6715 30.4598 24.8467 29.999 24.8467Z" fill="#BA9B48"/>
<path d="M36.6008 21.2467C35.6072 21.2467 34.8008 20.4415 34.8008 19.4467V7.44673C34.8008 6.45193 35.6072 5.64673 36.6008 5.64673C37.5944 5.64673 38.4008 6.45193 38.4008 7.44673V19.4467C38.4008 20.4415 37.5944 21.2467 36.6008 21.2467Z" fill="#BA9B48"/>
</svg>
