<svg width="30" height="31" viewBox="0 0 30 31" fill="none" xmlns="http://www.w3.org/2000/svg">
<path d="M15 2.5C14.448 2.5 14 2.948 14 3.5V3.67188C14 4.14987 13.6634 4.57634 13.1914 4.65234C12.9624 4.68934 12.7357 4.7322 12.5117 4.7832C12.0477 4.8892 11.5785 4.6265 11.3965 4.1875L11.3301 4.03125C11.1191 3.52125 10.5344 3.27823 10.0234 3.49023C9.51344 3.70123 9.27042 4.28588 9.48242 4.79688L9.54883 4.95703C9.73283 5.39703 9.58569 5.91792 9.17969 6.16992C8.98369 6.29192 8.79247 6.41973 8.60547 6.55273C8.21747 6.82973 7.68075 6.76669 7.34375 6.42969L7.22266 6.30859C6.83166 5.91759 6.19859 5.91759 5.80859 6.30859C5.41859 6.69959 5.41859 7.33266 5.80859 7.72266L5.92969 7.84375C6.26669 8.18075 6.32973 8.71647 6.05273 9.10547C5.91973 9.29247 5.79192 9.48369 5.66992 9.67969C5.41792 10.0857 4.89608 10.2338 4.45508 10.0508L4.29688 9.98438C3.78688 9.77338 3.20028 10.0154 2.98828 10.5254C2.77728 11.0354 3.0193 11.62 3.5293 11.832L3.68555 11.8965C4.12455 12.0785 4.3892 12.5477 4.2832 13.0117C4.2322 13.2357 4.18739 13.4624 4.15039 13.6914C4.07539 14.1624 3.64987 14.5 3.17188 14.5H3C2.448 14.5 2 14.948 2 15.5C2 16.052 2.448 16.5 3 16.5H3.17188C3.64987 16.5 4.07634 16.8366 4.15234 17.3086C4.18934 17.5376 4.2322 17.7643 4.2832 17.9883C4.3892 18.4523 4.1265 18.9215 3.6875 19.1035L3.53125 19.1699C3.02125 19.3809 2.77823 19.9656 2.99023 20.4766C3.20123 20.9866 3.78588 21.2296 4.29688 21.0176L4.45703 20.9512C4.89803 20.7682 5.41888 20.9153 5.67188 21.3203C5.79388 21.5163 5.92069 21.7085 6.05469 21.8965C6.33169 22.2845 6.26864 22.8212 5.93164 23.1582L5.80859 23.2793C5.41759 23.6703 5.41759 24.3034 5.80859 24.6934C6.19959 25.0834 6.83266 25.0844 7.22266 24.6934L7.3457 24.5723C7.6827 24.2353 8.21747 24.1703 8.60547 24.4473C8.79347 24.5813 8.98564 24.71 9.18164 24.832C9.58664 25.084 9.73573 25.6059 9.55273 26.0469L9.48633 26.2051C9.27533 26.7151 9.51734 27.3017 10.0273 27.5137C10.5373 27.7247 11.122 27.4827 11.334 26.9727L11.3984 26.8164C11.5804 26.3774 12.0497 26.1128 12.5137 26.2188C12.7377 26.2697 12.9644 26.3146 13.1934 26.3516C13.6624 26.4246 14 26.8501 14 27.3281V27.5C14 28.052 14.448 28.5 15 28.5C15.552 28.5 16 28.052 16 27.5V27.3281C16 26.8501 16.3366 26.4237 16.8086 26.3477C17.0376 26.3107 17.2643 26.2678 17.4883 26.2168C17.9523 26.1108 18.4215 26.3735 18.6035 26.8125L18.6699 26.9688C18.8809 27.4787 19.4656 27.7218 19.9766 27.5098C20.4866 27.2988 20.7296 26.7141 20.5176 26.2031L20.4512 26.043C20.2682 25.602 20.4153 25.0811 20.8203 24.8281C21.0163 24.7061 21.2085 24.5793 21.3965 24.4453C21.7845 24.1683 22.3212 24.2314 22.6582 24.5684L22.7793 24.6914C23.1703 25.0824 23.8034 25.0824 24.1934 24.6914C24.5834 24.3004 24.5844 23.6673 24.1934 23.2773L24.0723 23.1543C23.7353 22.8173 23.6703 22.2825 23.9473 21.8945C24.0813 21.7065 24.21 21.5144 24.332 21.3184C24.584 20.9134 25.1059 20.7643 25.5469 20.9473L25.7051 21.0137C26.2151 21.2247 26.8017 20.9827 27.0137 20.4727C27.2247 19.9627 26.9827 19.378 26.4727 19.166L26.3164 19.1016C25.8774 18.9196 25.6128 18.4503 25.7188 17.9863C25.7697 17.7623 25.8146 17.5356 25.8516 17.3066C25.9246 16.8376 26.3501 16.5 26.8281 16.5H27C27.552 16.5 28 16.052 28 15.5C28 14.948 27.552 14.5 27 14.5H26.8281C26.3501 14.5 25.9237 14.1634 25.8477 13.6914C25.8107 13.4624 25.7678 13.2357 25.7168 13.0117C25.6108 12.5477 25.8735 12.0785 26.3125 11.8965L26.4688 11.8301C26.9787 11.6191 27.2218 11.0344 27.0098 10.5234C26.7988 10.0134 26.2141 9.77042 25.7031 9.98242L25.543 10.0488C25.102 10.2318 24.5811 10.0847 24.3281 9.67969C24.2061 9.48369 24.0793 9.29152 23.9453 9.10352C23.6683 8.71552 23.7314 8.1788 24.0684 7.8418L24.1914 7.7207C24.5824 7.3297 24.5824 6.69664 24.1914 6.30664C23.8004 5.91564 23.1673 5.91564 22.7773 6.30664L22.6562 6.42969C22.3192 6.76669 21.7825 6.83169 21.3945 6.55469C21.2065 6.42069 21.0144 6.29192 20.8184 6.16992C20.4134 5.91792 20.2662 5.39608 20.4492 4.95508L20.5156 4.79688C20.7266 4.28688 20.4846 3.70028 19.9746 3.48828C19.4646 3.27728 18.88 3.5193 18.668 4.0293L18.6016 4.18555C18.4196 4.62455 17.9503 4.8892 17.4863 4.7832C17.2623 4.7322 17.0356 4.68739 16.8066 4.65039C16.3366 4.57539 16 4.14987 16 3.67188V3.5C16 2.948 15.552 2.5 15 2.5ZM15 7.5C19.0786 7.5 22.4386 10.5549 22.9316 14.5H16.7285C16.5533 14.1965 16.3014 13.9443 15.998 13.7688C15.6946 13.5933 15.3505 13.5006 15 13.5C14.9993 13.5 14.9987 13.5 14.998 13.5L11.8965 8.125C12.851 7.72273 13.8992 7.5 15 7.5ZM10.1699 9.13281L13.2695 14.5C13.0934 14.8039 13.0005 15.1488 13 15.5C13.0012 15.8499 13.0941 16.1934 13.2695 16.4961L10.168 21.8652C8.24643 20.404 7 18.1001 7 15.5C7 12.8989 8.24714 10.594 10.1699 9.13281ZM16.7305 16.5H22.9316C22.4386 20.4451 19.0786 23.5 15 23.5C13.8992 23.5 12.851 23.2773 11.8965 22.875L14.998 17.5C14.9987 17.5 14.9993 17.5 15 17.5C15.3508 17.4997 15.6954 17.4072 15.9991 17.2317C16.3028 17.0561 16.5551 16.8038 16.7305 16.5Z" fill="#E4AC5D"/>
</svg>
