<svg width="24" height="25" viewBox="0 0 24 25" fill="none" xmlns="http://www.w3.org/2000/svg">
<path d="M3.83992 1.45996V3.37996H1.91992V23.54H7.19992V19.22H9.11992V23.54H14.3999V3.37996H12.4799V1.45996H3.83992ZM4.79992 5.29996H5.75992V6.25996H4.79992V5.29996ZM6.71992 5.29996H7.67992V6.25996H6.71992V5.29996ZM8.63992 5.29996H9.59992V6.25996H8.63992V5.29996ZM10.5599 5.29996H11.5199V6.25996H10.5599V5.29996ZM15.3599 7.21996V9.13996H16.3199V10.1H15.3599V11.06H16.3199V12.02H15.3599V12.98H16.3199V13.94H15.3599V14.9H16.3199V15.86H15.3599V16.82H16.3199V17.78H15.3599V18.74H16.3199V19.7H15.3599V20.66H16.3199V21.62H15.3599V23.54H22.0799V7.21996H15.3599ZM4.79992 7.69996H5.75992V9.61996H4.79992V7.69996ZM6.71992 7.69996H7.67992V9.61996H6.71992V7.69996ZM8.63992 7.69996H9.59992V9.61996H8.63992V7.69996ZM10.5599 7.69996H11.5199V9.61996H10.5599V7.69996ZM17.2799 9.13996H18.2399V10.1H17.2799V9.13996ZM19.1999 9.13996H20.1599V10.1H19.1999V9.13996ZM4.79992 10.58H5.75992V12.5H4.79992V10.58ZM6.71992 10.58H7.67992V12.5H6.71992V10.58ZM8.63992 10.58H9.59992V12.5H8.63992V10.58ZM10.5599 10.58H11.5199V12.5H10.5599V10.58ZM17.2799 11.06H18.2399V12.02H17.2799V11.06ZM19.1999 11.06H20.1599V12.02H19.1999V11.06ZM17.2799 12.98H18.2399V13.94H17.2799V12.98ZM19.1999 12.98H20.1599V13.94H19.1999V12.98ZM4.79992 13.46H5.75992V15.38H4.79992V13.46ZM6.71992 13.46H7.67992V15.38H6.71992V13.46ZM8.63992 13.46H9.59992V15.38H8.63992V13.46ZM10.5599 13.46H11.5199V15.38H10.5599V13.46ZM17.2799 14.9H18.2399V15.86H17.2799V14.9ZM19.1999 14.9H20.1599V15.86H19.1999V14.9ZM4.79992 16.34H5.75992V18.26H4.79992V16.34ZM6.71992 16.34H7.67992V18.26H6.71992V16.34ZM8.63992 16.34H9.59992V18.26H8.63992V16.34ZM10.5599 16.34H11.5199V18.26H10.5599V16.34ZM17.2799 16.82H18.2399V17.78H17.2799V16.82ZM19.1999 16.82H20.1599V17.78H19.1999V16.82ZM17.2799 18.74H18.2399V19.7H17.2799V18.74ZM19.1999 18.74H20.1599V19.7H19.1999V18.74ZM4.79992 19.22H5.75992V21.62H4.79992V19.22ZM10.5599 19.22H11.5199V21.62H10.5599V19.22ZM17.2799 20.66H18.2399V21.62H17.2799V20.66ZM19.1999 20.66H20.1599V21.62H19.1999V20.66Z" fill="#E4AC5D"/>
</svg>
