<svg width="96" height="97" viewBox="0 0 96 97" fill="none" xmlns="http://www.w3.org/2000/svg">
<path d="M48 57.8467C56.2843 57.8467 63 51.131 63 42.8467C63 34.5624 56.2843 27.8467 48 27.8467C39.7157 27.8467 33 34.5624 33 42.8467C33 51.131 39.7157 57.8467 48 57.8467Z" fill="#FFF2CC"/>
<path d="M48 39.5616C45.963 35.5101 39 35.9916 39 41.0166C39 45.8286 46.086 50.6406 48 51.8466C49.914 50.6406 57 45.8286 57 41.0166C57 35.9916 50.037 35.5101 48 39.5616Z" fill="#FF8088"/>
<path d="M48 3.84668L43.5 11.3467C45 11.3467 52.5 11.3467 52.5 11.3467L48 3.84668Z" fill="#505B66"/>
<path d="M87 42.8467L79.5 38.3467C79.5 39.8467 79.5 47.3467 79.5 47.3467L87 42.8467Z" fill="#505B66"/>
<path d="M9 42.8467L16.5 47.3467C16.5 45.8467 16.5 38.3467 16.5 38.3467L9 42.8467Z" fill="#505B66"/>
<path d="M20.4219 15.2693L22.5429 23.7548C23.6034 22.6943 28.9074 17.3903 28.9074 17.3903L20.4219 15.2693Z" fill="#505B66"/>
<path d="M75.5792 15.2693L67.0938 17.3903C68.1543 18.4508 73.4583 23.7548 73.4583 23.7548L75.5792 15.2693Z" fill="#505B66"/>
<path d="M60 60.8467V75.8467C60 77.5042 58.6575 78.8467 57 78.8467H48H39C37.3425 78.8467 36 77.5042 36 75.8467V60.8467H30V75.8467C30 80.8177 34.029 84.8467 39 84.8467V93.8467H57V84.8467C61.971 84.8467 66 80.8177 66 75.8467V60.8467H60Z" fill="#99AECC"/>
<path d="M48 78.8467C51.3137 78.8467 54 76.1604 54 72.8467C54 69.533 51.3137 66.8467 48 66.8467C44.6863 66.8467 42 69.533 42 72.8467C42 76.1604 44.6863 78.8467 48 78.8467Z" fill="#99AECC"/>
<path d="M48 59.3467C57.0975 59.3467 64.5 51.9442 64.5 42.8467C64.5 33.7492 57.0975 26.3467 48 26.3467C38.9025 26.3467 31.5 33.7492 31.5 42.8467C31.5 51.9442 38.9025 59.3467 48 59.3467ZM48 29.3467C55.4445 29.3467 61.5 35.4022 61.5 42.8467C61.5 50.2912 55.4445 56.3467 48 56.3467C40.5555 56.3467 34.5 50.2912 34.5 42.8467C34.5 35.4022 40.5555 29.3467 48 29.3467Z" fill="black"/>
<path d="M49.501 24.8467V12.8467H52.501C53.041 12.8467 53.539 12.5572 53.806 12.0862C54.073 11.6152 54.0655 11.0377 53.7865 10.5742L49.2865 3.07422C48.745 2.17122 47.2555 2.17122 46.714 3.07422L42.214 10.5742C41.935 11.0377 41.929 11.6137 42.1945 12.0862C42.463 12.5572 42.961 12.8467 43.501 12.8467H46.501V24.8467H49.501ZM46.1515 9.84672L48.001 6.76122L49.8506 9.84672H46.1515Z" fill="black"/>
<path d="M88.5 42.8467C88.5 42.3187 88.2225 41.8312 87.7725 41.5612L80.2725 37.0612C79.8075 36.7822 79.2315 36.7762 78.7605 37.0417C78.2895 37.3072 78 37.8067 78 38.3467V41.3467H66V44.3467H78V47.3467C78 47.8867 78.2895 48.3847 78.7605 48.6517C78.99 48.7822 79.245 48.8467 79.5 48.8467C79.767 48.8467 80.034 48.7747 80.2725 48.6322L87.7725 44.1322C88.2225 43.8622 88.5 43.3747 88.5 42.8467ZM81 44.6962V40.9957L84.0855 42.8467L81 44.6962Z" fill="black"/>
<path d="M8.2275 44.1321L15.7275 48.6321C15.966 48.7746 16.233 48.8466 16.5 48.8466C16.755 48.8466 17.01 48.7821 17.2395 48.6516C17.7105 48.3846 18 47.8866 18 47.3466V44.3466H30V41.3466H18V38.3466C18 37.8066 17.7105 37.3086 17.2395 37.0416C16.7685 36.7746 16.1925 36.7821 15.7275 37.0611L8.2275 41.5611C7.7775 41.8311 7.5 42.3186 7.5 42.8466C7.5 43.3746 7.7775 43.8621 8.2275 44.1321ZM15 40.9971V44.6976L11.9145 42.8466L15 40.9971Z" fill="black"/>
<path d="M19.3616 14.2087C18.9896 14.5807 18.8381 15.1207 18.9671 15.6322L21.0881 24.1177C21.2186 24.6427 21.6206 25.0552 22.1426 25.2007C22.2746 25.2367 22.4096 25.2547 22.5431 25.2547C22.9361 25.2547 23.3186 25.1002 23.6036 24.8152L25.7261 22.6927L34.2116 31.1782L36.3326 29.0572L27.8471 20.5717L29.9696 18.4492C30.3521 18.0667 30.4991 17.5087 30.3551 16.9882C30.2096 16.4662 29.7971 16.0642 29.2721 15.9337L20.7866 13.8127C20.2796 13.6852 19.7336 13.8367 19.3616 14.2087ZM25.9736 18.2032L23.3561 20.8207L22.4831 17.3302L25.9736 18.2032Z" fill="black"/>
<path d="M72.3955 24.8152C72.6805 25.1002 73.063 25.2547 73.456 25.2547C73.5895 25.2547 73.7245 25.2367 73.8565 25.2007C74.3785 25.0552 74.7805 24.6427 74.911 24.1177L77.032 15.6322C77.161 15.1207 77.0095 14.5807 76.6375 14.2087C76.2655 13.8367 75.7225 13.6837 75.214 13.8142L66.7285 15.9352C66.2035 16.0657 65.791 16.4677 65.6455 16.9897C65.5015 17.5102 65.6485 18.0682 66.031 18.4507L68.1535 20.5732L59.668 29.0587L61.789 31.1797L70.2745 22.6942L72.3955 24.8152ZM73.516 17.3302L72.643 20.8207L70.0255 18.2032L73.516 17.3302Z" fill="black"/>
<path d="M47.2005 53.1156C47.445 53.2686 47.721 53.3466 48 53.3466C48.279 53.3466 48.555 53.2686 48.7995 53.1156C51.717 51.2781 58.5 46.4196 58.5 41.0166C58.5 38.2626 56.8425 36.1581 54.171 35.5251C52.1925 35.0586 49.725 35.5101 48 37.1016C46.275 35.5086 43.809 35.0601 41.829 35.5251C39.1575 36.1581 37.5 38.2626 37.5 41.0166C37.5 46.4196 44.283 51.2781 47.2005 53.1156ZM42.5205 38.4441C42.789 38.3796 43.0755 38.3481 43.371 38.3481C44.619 38.3481 46.0065 38.9346 46.659 40.2351C47.169 41.2491 48.8295 41.2491 49.3395 40.2351C50.1465 38.6286 52.0755 38.1111 53.4795 38.4456C54.234 38.6241 55.5 39.1956 55.5 41.0166C55.5 43.9911 51.624 47.6226 48 50.0556C44.376 47.6226 40.5 43.9911 40.5 41.0166C40.5 39.1956 41.766 38.6241 42.5205 38.4441Z" fill="black"/>
<path d="M67.5 75.8467V60.8467C67.5 60.0172 66.8295 59.3467 66 59.3467H60C59.1705 59.3467 58.5 60.0172 58.5 60.8467V75.8467C58.5 76.6747 57.828 77.3467 57 77.3467H53.961C54.9135 76.0897 55.5 74.5417 55.5 72.8467C55.5 68.7112 52.1355 65.3467 48 65.3467C43.8645 65.3467 40.5 68.7112 40.5 72.8467C40.5 74.5417 41.0865 76.0897 42.039 77.3467H39C38.172 77.3467 37.5 76.6747 37.5 75.8467V60.8467C37.5 60.0172 36.8295 59.3467 36 59.3467H30C29.1705 59.3467 28.5 60.0172 28.5 60.8467V75.8467C28.5 81.1282 32.418 85.5097 37.5 86.2402V93.8467H40.5V84.8467C40.5 84.0172 39.8295 83.3467 39 83.3467C34.8645 83.3467 31.5 79.9822 31.5 75.8467V62.3467H34.5V75.8467C34.5 78.3277 36.519 80.3467 39 80.3467H57C59.481 80.3467 61.5 78.3277 61.5 75.8467V62.3467H64.5V75.8467C64.5 79.9822 61.1355 83.3467 57 83.3467C56.1705 83.3467 55.5 84.0172 55.5 84.8467V93.8467H58.5V86.2402C63.582 85.5097 67.5 81.1282 67.5 75.8467ZM48 77.3467C45.519 77.3467 43.5 75.3277 43.5 72.8467C43.5 70.3657 45.519 68.3467 48 68.3467C50.481 68.3467 52.5 70.3657 52.5 72.8467C52.5 75.3277 50.481 77.3467 48 77.3467Z" fill="black"/>
</svg>
