<svg width="96" height="97" viewBox="0 0 96 97" fill="none" xmlns="http://www.w3.org/2000/svg">
<path d="M48.0015 82.5846V56.8466H29.6055C26.9895 56.8466 25.2535 54.1346 26.3495 51.7586L43.7015 14.1646C44.7135 11.9706 48.0015 12.6926 48.0015 15.1086V40.8466H66.3975C69.0135 40.8466 70.7495 43.5586 69.6535 45.9346L52.3015 83.5286C51.2895 85.7226 48.0015 85.0006 48.0015 82.5846Z" fill="url(#paint0_linear_431_3255)"/>
<path d="M86 48.8467H80" stroke="#E36001" stroke-width="4" stroke-miterlimit="10" stroke-linecap="round" stroke-linejoin="round"/>
<path d="M16 48.8467H10" stroke="#E36001" stroke-width="4" stroke-miterlimit="10" stroke-linecap="round" stroke-linejoin="round"/>
<path d="M74.8709 21.9766L70.6289 26.2186" stroke="#E36001" stroke-width="4" stroke-miterlimit="10" stroke-linecap="round" stroke-linejoin="round"/>
<path d="M25.3709 71.4746L21.1289 75.7166" stroke="#E36001" stroke-width="4" stroke-miterlimit="10" stroke-linecap="round" stroke-linejoin="round"/>
<path d="M74.8709 75.7166L70.6289 71.4746" stroke="#E36001" stroke-width="4" stroke-miterlimit="10" stroke-linecap="round" stroke-linejoin="round"/>
<path d="M25.3709 26.2186L21.1289 21.9766" stroke="#E36001" stroke-width="4" stroke-miterlimit="10" stroke-linecap="round" stroke-linejoin="round"/>
<defs>
<linearGradient id="paint0_linear_431_3255" x1="48.0015" y1="12.5146" x2="48.0015" y2="86.3566" gradientUnits="userSpaceOnUse">
<stop stop-color="#FEDE00"/>
<stop offset="1" stop-color="#FFD000"/>
</linearGradient>
</defs>
</svg>
