<svg width="180" height="128" viewBox="0 0 180 128" fill="none" xmlns="http://www.w3.org/2000/svg">
<g filter="url(#filter0_d_405_3265)">
<path d="M73.6388 36.0689V27.9578C73.6388 24.6867 71.8814 21.655 69.0322 20.0062L62.029 15.9639C59.1798 14.3151 55.6649 14.3151 52.8423 15.9639L45.8391 20.0062C42.9899 21.655 41.2324 24.6867 41.2324 27.9578V36.0423C41.2324 39.3133 42.9899 42.3451 45.8391 43.9939L52.8423 48.0361C55.6915 49.685 59.2064 49.685 62.029 48.0361L69.0322 43.9939C71.908 42.3716 73.6388 39.3399 73.6388 36.0689Z" fill="#1C1934"/>
</g>
<path d="M47.597 27.2131H67.3019C68.4735 27.2131 69.4321 28.1705 69.4321 29.3406V34.6594C69.4321 35.8296 68.4735 36.7869 67.3019 36.7869H47.597C46.4254 36.7869 45.4668 35.8296 45.4668 34.6594V29.3406C45.4668 28.1705 46.4254 27.2131 47.597 27.2131Z" fill="white"/>
<g filter="url(#filter1_d_405_3265)">
<path d="M62.2424 22.1602V41.8397C62.2424 43.0098 61.2838 43.9672 60.1121 43.9672H54.7865C53.6149 43.9672 52.6562 43.0098 52.6562 41.8397V22.1602C52.6562 20.9901 53.6149 20.0327 54.7865 20.0327H60.1121C61.2838 20.0327 62.2424 20.9901 62.2424 22.1602Z" fill="white"/>
</g>
<path d="M88.7177 26.3933C91.7937 26.3933 93.2985 28.053 93.2985 30.7307C93.2985 33.3862 91.7937 35.0459 88.7177 35.0459H84.4246V38.0997H82.5879V26.3933H88.7177ZM88.4522 33.4304C90.3995 33.4304 91.4617 32.6338 91.4617 30.7307C91.4617 28.7833 90.3995 28.0088 88.4522 28.0088H84.4025V33.4083H88.4522V33.4304Z" fill="#1C1934"/>
<path d="M104.231 33.1205V38.1217H102.46V33.4746C102.46 31.66 101.597 30.7305 99.9154 30.7305C98.1893 30.7305 97.0828 31.7042 97.0828 33.5631V38.1217H95.3125V26.2383H97.0828V30.7527L96.8616 31.3944C97.5254 29.9117 98.7425 29.1594 100.535 29.1594C102.947 29.1594 104.231 30.5756 104.231 33.1205Z" fill="#1C1934"/>
<path d="M114.675 31.9477V38.1218H113.148L112.971 37.126L113.148 36.6834C112.219 37.7677 110.714 38.3652 109.099 38.3652C107.085 38.3652 105.979 37.3915 105.979 35.6654C105.979 33.9836 106.996 33.1427 109.032 33.1427H112.839V32.1469C112.839 31.0183 112.197 30.5314 110.449 30.5314C108.833 30.5314 108.191 30.9298 108.103 31.7486H106.51C106.465 30.0225 107.793 29.1594 110.471 29.1594C113.392 29.1594 114.675 30.0889 114.675 31.9477ZM109.829 36.9711C111.024 36.9711 112.197 36.5064 112.883 35.8867V34.2713H109.342C108.324 34.2713 107.793 34.7139 107.793 35.5548C107.793 36.4842 108.368 36.9711 109.563 36.9711H109.829Z" fill="#1C1934"/>
<path d="M124.876 32.4788V33.0099H123.216V32.8329C123.216 31.483 122.486 30.7085 121.114 30.7085C119.587 30.7085 118.636 31.5715 118.636 33.3861V38.0997H116.865V29.4028H118.591L118.636 30.7306L118.525 31.1068C119.167 29.8012 120.207 29.1594 121.645 29.1594C123.725 29.1594 124.876 30.4429 124.876 32.4788Z" fill="#1C1934"/>
<path d="M142.181 33.1647V38.1217H140.411V33.4746C140.411 31.7263 139.747 30.7084 137.999 30.7084C136.251 30.7084 135.365 31.7706 135.365 33.5188V38.0996H133.595V33.5188C133.595 31.6378 132.798 30.7084 131.161 30.7084C129.435 30.7084 128.55 31.7706 128.55 33.5188V38.0996H126.779V29.4028H128.505L128.55 30.7305L128.373 31.2174C129.014 29.8232 130.143 29.1372 131.758 29.1372C133.418 29.1372 134.502 29.8232 135.011 31.2174C135.653 29.8232 136.826 29.1372 138.552 29.1372C141.053 29.1593 142.181 30.642 142.181 33.1647Z" fill="#1C1934"/>
<path d="M152.65 31.9477V38.1218H151.123L150.946 37.126L151.123 36.6834C150.194 37.7677 148.689 38.3652 147.073 38.3652C145.06 38.3652 143.953 37.3915 143.953 35.6654C143.953 33.9836 144.971 33.1427 147.007 33.1427H150.813V32.1469C150.813 31.0183 150.171 30.5314 148.423 30.5314C146.808 30.5314 146.166 30.9298 146.078 31.7486H144.484C144.44 30.0225 145.768 29.1594 148.445 29.1594C151.366 29.1594 152.65 30.0889 152.65 31.9477ZM147.804 36.9711C148.999 36.9711 150.171 36.5064 150.857 35.8867V34.2713H147.317C146.299 34.2713 145.768 34.7139 145.768 35.5548C145.768 36.4842 146.343 36.9711 147.538 36.9711H147.804Z" fill="#1C1934"/>
<path d="M156.721 36.4843H164.444V38.0997H154.906V26.3933H156.721V36.4843Z" fill="#1C1934"/>
<path d="M166.215 26.6366C166.215 26.1055 166.613 25.6629 167.211 25.6629C168.538 25.5965 168.538 27.6767 167.211 27.5882C166.613 27.5882 166.215 27.1677 166.215 26.6366ZM166.325 38.1217V29.4028H168.096V38.0996H166.325V38.1217Z" fill="#1C1934"/>
<path d="M180.001 38.1217H177.898L174.911 34.7581L172.034 38.1217H170.33V26.2383H172.1V34.404L172.078 35.776H172.123L173.185 34.4261L177.389 29.4028H179.469L175.929 33.541L180.001 38.1217Z" fill="#1C1934"/>
<defs>
<filter id="filter0_d_405_3265" x="39.2324" y="13.7273" width="36.4062" height="38.5454" filterUnits="userSpaceOnUse" color-interpolation-filters="sRGB">
<feFlood flood-opacity="0" result="BackgroundImageFix"/>
<feColorMatrix in="SourceAlpha" type="matrix" values="0 0 0 0 0 0 0 0 0 0 0 0 0 0 0 0 0 0 127 0" result="hardAlpha"/>
<feOffset dy="1"/>
<feGaussianBlur stdDeviation="1"/>
<feComposite in2="hardAlpha" operator="out"/>
<feColorMatrix type="matrix" values="0 0 0 0 0 0 0 0 0 0 0 0 0 0 0 0 0 0 0.05 0"/>
<feBlend mode="normal" in2="BackgroundImageFix" result="effect1_dropShadow_405_3265"/>
<feBlend mode="normal" in="SourceGraphic" in2="effect1_dropShadow_405_3265" result="shape"/>
</filter>
<filter id="filter1_d_405_3265" x="0.65625" y="0.0327148" width="113.586" height="127.935" filterUnits="userSpaceOnUse" color-interpolation-filters="sRGB">
<feFlood flood-opacity="0" result="BackgroundImageFix"/>
<feColorMatrix in="SourceAlpha" type="matrix" values="0 0 0 0 0 0 0 0 0 0 0 0 0 0 0 0 0 0 127 0" result="hardAlpha"/>
<feMorphology radius="12" operator="erode" in="SourceAlpha" result="effect1_dropShadow_405_3265"/>
<feOffset dy="32"/>
<feGaussianBlur stdDeviation="32"/>
<feComposite in2="hardAlpha" operator="out"/>
<feColorMatrix type="matrix" values="0 0 0 0 0 0 0 0 0 0 0 0 0 0 0 0 0 0 0.14 0"/>
<feBlend mode="normal" in2="BackgroundImageFix" result="effect1_dropShadow_405_3265"/>
<feBlend mode="normal" in="SourceGraphic" in2="effect1_dropShadow_405_3265" result="shape"/>
</filter>
</defs>
</svg>
