<svg width="40" height="42" viewBox="0 0 40 42" fill="none" xmlns="http://www.w3.org/2000/svg">
<g filter="url(#filter0_b_405_3222)">
<path d="M0 7.89309C0 35.0472 0 37.5 0 37.5H2.44506C2.44506 12.8333 2.44506 10.3459 2.44506 10.3459C2.44506 10.3459 2.44506 7.89309 0 7.89309ZM4.92455 7.89309C7.36961 7.89309 7.36961 10.3459 7.36961 10.3459V25.1667C7.36961 25.1667 7.36961 27.6195 4.92455 27.6195C9.84911 27.6195 9.84911 22.6793 9.84911 22.6793V12.8333C9.84911 12.8333 9.84911 7.89309 4.92455 7.89309Z" fill="#1C1934"/>
<path d="M13.6103 35.0472V10.3459C13.6103 10.3459 13.6103 7.89309 16.0898 7.89309C11.1653 7.89309 11.1653 12.8333 11.1653 12.8333V32.5598C11.1653 32.5598 11.1653 37.5 16.0898 37.5C13.6103 37.5 13.6103 35.0472 13.6103 35.0472ZM16.0898 7.89309C18.5349 7.89309 18.5349 10.3459 18.5349 10.3459V35.0472C18.5349 35.0472 18.5349 37.5 16.0898 37.5C20.9799 37.5 20.9799 32.5598 20.9799 32.5598V12.8333C20.9799 12.8333 20.9799 7.89309 16.0898 7.89309ZM18.5349 5.4057C16.0898 5.4057 16.0898 2.95285 16.0898 2.95285C16.0898 2.95285 16.0898 0.5 13.6103 0.5C13.6103 0.5 13.6103 5.4057 18.5349 5.4057Z" fill="#1C1934"/>
<path d="M24.8765 35.0472V10.3459C24.8765 7.89309 22.4314 7.89309 22.4314 7.89309V32.5598C22.4314 32.5598 22.4314 37.5 27.356 37.5C24.8765 37.5 24.8765 35.0472 24.8765 35.0472ZM29.801 35.0472C29.801 35.0472 29.801 37.5 27.356 37.5C32.2461 37.5 32.2461 32.5598 32.2461 32.5598C29.801 32.5598 29.801 35.0472 29.801 35.0472Z" fill="#1C1934"/>
<path d="M35 7.85854C32.5205 7.85854 32.5205 10.3114 32.5205 10.3114C32.5205 10.3114 32.5205 12.7988 32.5205 37.4655H35C35 37.4655 35 35.0126 35 7.85854Z" fill="#1C1934"/>
</g>
<defs>
<filter id="filter0_b_405_3222" x="-100" y="-99.5" width="235" height="237" filterUnits="userSpaceOnUse" color-interpolation-filters="sRGB">
<feFlood flood-opacity="0" result="BackgroundImageFix"/>
<feGaussianBlur in="BackgroundImageFix" stdDeviation="50"/>
<feComposite in2="SourceAlpha" operator="in" result="effect1_backgroundBlur_405_3222"/>
<feBlend mode="normal" in="SourceGraphic" in2="effect1_backgroundBlur_405_3222" result="shape"/>
</filter>
</defs>
</svg>
