<svg width="109" height="38" viewBox="0 0 109 38" fill="none" xmlns="http://www.w3.org/2000/svg">
<g clip-path="url(#clip0_405_3258)">
<path d="M38 14.25H0V23.75H38V14.25Z" fill="#1C1934"/>
<path d="M38 9.5L0 14.25V4.75L38 0V9.5Z" fill="#1C1934"/>
<path d="M38 38H0V28.5L38 23.75V38Z" fill="#1C1934"/>
</g>
<path d="M41.4732 18.1265C41.6433 18.1265 41.7944 18.1632 41.9265 18.2368C42.0599 18.3103 42.1634 18.4139 42.2367 18.5475C42.3101 18.6796 42.3467 18.8304 42.3467 19C42.3467 19.1696 42.3101 19.3212 42.2367 19.4548C42.1634 19.5869 42.0599 19.6897 41.9265 19.7633C41.7944 19.8368 41.6433 19.8736 41.4732 19.8736C41.303 19.8736 41.1512 19.8368 41.0177 19.7633C40.8857 19.6897 40.783 19.5869 40.7096 19.4548C40.6363 19.3212 40.5996 19.1696 40.5996 19C40.5996 18.8304 40.6363 18.6796 40.7096 18.5475C40.783 18.4139 40.8857 18.3103 41.0177 18.2368C41.1512 18.1632 41.303 18.1265 41.4732 18.1265ZM41.4732 19.7317C41.614 19.7317 41.7387 19.701 41.8472 19.6394C41.9573 19.5779 42.0423 19.4916 42.1025 19.3805C42.1641 19.2695 42.1949 19.1426 42.1949 19C42.1949 18.8574 42.1641 18.7306 42.1025 18.6195C42.0423 18.5085 41.9573 18.4222 41.8472 18.3606C41.7387 18.2991 41.614 18.2683 41.4732 18.2683C41.3323 18.2683 41.2069 18.2991 41.0969 18.3606C40.9883 18.4222 40.904 18.5085 40.8439 18.6195C40.7837 18.7306 40.7536 18.8574 40.7536 19C40.7536 19.1426 40.7837 19.2695 40.8439 19.3805C40.904 19.4916 40.9883 19.5779 41.0969 19.6394C41.2069 19.701 41.3323 19.7317 41.4732 19.7317ZM41.8406 19.2792C41.8538 19.3212 41.867 19.358 41.8802 19.3895C41.8949 19.4195 41.9133 19.4443 41.9353 19.4638V19.4796H41.7526C41.716 19.4376 41.6844 19.3783 41.658 19.3017C41.6375 19.2477 41.6184 19.2079 41.6008 19.1824C41.5832 19.1569 41.5561 19.1374 41.5194 19.1239H41.5062H41.3015V19.4796H41.1123V18.498H41.5062C41.6235 18.498 41.7152 18.525 41.7812 18.579C41.8472 18.6315 41.8802 18.7058 41.8802 18.8019C41.8802 18.8664 41.8656 18.9235 41.8362 18.973C41.8069 19.021 41.7658 19.0578 41.713 19.0833C41.7702 19.1194 41.8128 19.1846 41.8406 19.2792ZM41.3015 18.9753H41.5062C41.5649 18.9753 41.6103 18.9603 41.6426 18.9302C41.6749 18.9002 41.691 18.8574 41.691 18.8019C41.691 18.7524 41.6749 18.7141 41.6426 18.6871C41.6103 18.6601 41.5649 18.6466 41.5062 18.6466H41.3015V18.9753Z" fill="#1C1934"/>
<path d="M54.6897 26.125C52.5758 26.125 50.894 25.7226 49.6442 24.9177C48.4078 24.1128 47.7497 22.9781 47.6699 21.5135H50.063C50.1428 22.7274 50.555 23.6115 51.2995 24.1656C52.0573 24.7198 53.1741 24.9969 54.6499 24.9969C55.8863 24.9969 56.8103 24.7792 57.4219 24.3437C58.0468 23.9083 58.3592 23.275 58.3592 22.4437C58.3592 21.9819 58.2462 21.5861 58.0202 21.2563C57.7941 20.9264 57.3754 20.6295 56.7638 20.3656C56.1522 20.1017 55.2747 19.8576 54.1313 19.6333C52.3365 19.2771 50.8674 18.7889 49.724 18.1687C48.5939 17.5486 48.0289 16.6514 48.0289 15.4771C48.0289 14.184 48.6272 13.267 49.8237 12.726C51.0203 12.1719 52.5625 11.8948 54.4504 11.8948C56.4979 11.8948 58.0601 12.2378 59.137 12.924C60.2139 13.6101 60.8121 14.5403 60.9318 15.7146H58.5786C58.3924 14.7514 57.947 14.0653 57.2424 13.6563C56.5378 13.234 55.5672 13.0229 54.3308 13.0229C53.2007 13.0229 52.3564 13.2142 51.7981 13.5969C51.2397 13.9663 50.9605 14.4545 50.9605 15.0615C50.9605 15.4045 51.0602 15.708 51.2596 15.9719C51.459 16.2358 51.8446 16.4865 52.4163 16.724C53.0013 16.9615 53.8455 17.199 54.949 17.4365C56.4248 17.7531 57.6014 18.0764 58.4788 18.4062C59.3563 18.7361 60.0477 19.1979 60.5529 19.7917C61.0581 20.3854 61.3107 21.1639 61.3107 22.1271C61.3107 22.9583 61.0382 23.6774 60.4931 24.2844C59.948 24.8781 59.1768 25.3333 58.1797 25.65C57.1826 25.9667 56.0193 26.125 54.6897 26.125Z" fill="#1C1934"/>
<path d="M62.9568 12.0729H65.9083V25.9271H62.9568V12.0729Z" fill="#1C1934"/>
<path d="M67.8797 12.0729H70.7914L78.3895 21.8896V12.0729H81.1017V25.9271H79.2271L70.5919 14.6458V25.9271H67.8797V12.0729Z" fill="#1C1934"/>
<path d="M86.8509 13.201H81.0276V12.0729H95.6057V13.201H89.7824V25.9271H86.8509V13.201Z" fill="#1C1934"/>
<path d="M103.526 22.3844H96.1073L94.3723 25.9271H92.3381L99.5972 11.875H101.392L108.232 25.9271H105.201L103.526 22.3844ZM102.988 21.2563L99.8964 14.7052L96.6657 21.2563H102.988Z" fill="#1C1934"/>
<defs>
<clipPath id="clip0_405_3258">
<rect width="38" height="38" fill="white"/>
</clipPath>
</defs>
</svg>
