<svg width="17" height="17" viewBox="0 0 17 17" fill="none" xmlns="http://www.w3.org/2000/svg">
<g id="svg-719665980_594" clip-path="url(#clip0_527_2086)">
<path id="Vector" fill-rule="evenodd" clip-rule="evenodd" d="M8.24023 16.9502C12.6585 16.9502 16.2402 13.3685 16.2402 8.9502C16.2402 4.53192 12.6585 0.950195 8.24023 0.950195C3.82195 0.950195 0.240234 4.53192 0.240234 8.9502C0.240234 13.3685 3.82195 16.9502 8.24023 16.9502ZM11.9473 7.65731C12.3378 7.26678 12.3378 6.63362 11.9473 6.24309C11.5568 5.85257 10.9236 5.85257 10.5331 6.24309L7.24023 9.53598L5.94734 8.24309C5.55681 7.85257 4.92365 7.85257 4.53312 8.24309C4.1426 8.63362 4.1426 9.26678 4.53312 9.65731L6.53312 11.6573C6.92365 12.0478 7.55681 12.0478 7.94734 11.6573L11.9473 7.65731Z" fill="#EE5622"/>
</g>
<defs>
<clipPath id="clip0_527_2086">
<rect width="16" height="16" fill="white" transform="translate(0.240234 0.950195)"/>
</clipPath>
</defs>
</svg>
