<svg width="160" height="40" viewBox="0 0 160 40" fill="none" xmlns="http://www.w3.org/2000/svg">
<g clip-path="url(#clip0_431_3370)">
<path d="M42.2172 14.1514H58.3469V17.1607H52.0047V34.0779H48.5172V17.1607H42.2031V14.1514H42.2172ZM57.6578 19.6498H60.6391V22.4342H60.6953C60.7937 22.0404 60.9766 21.6607 61.2437 21.2951C61.5109 20.9295 61.8344 20.5779 62.2141 20.2826C62.5937 19.9732 63.0156 19.7342 63.4797 19.5373C63.9437 19.3545 64.4219 19.256 64.9 19.256C65.2656 19.256 65.5328 19.2701 65.6734 19.2842C65.814 19.2982 65.9547 19.3264 66.1094 19.3404V22.406C65.8844 22.3639 65.6594 22.3357 65.4203 22.3076C65.1812 22.2795 64.9562 22.2654 64.7312 22.2654C64.1969 22.2654 63.6906 22.3779 63.2125 22.5889C62.7344 22.7998 62.3266 23.1232 61.975 23.531C61.6234 23.9529 61.3422 24.4592 61.1312 25.0779C60.9203 25.6967 60.8219 26.3998 60.8219 27.2014V34.0638H57.6437V19.6498H57.6578ZM80.7203 34.0779H77.5984V32.067H77.5422C77.1484 32.7982 76.5719 33.3748 75.7984 33.8107C75.025 34.2467 74.2375 34.4717 73.4359 34.4717C71.5375 34.4717 70.1594 34.0076 69.3156 33.0654C68.4719 32.1232 68.05 30.7029 68.05 28.8045V19.6498H71.2281V28.4951C71.2281 29.7607 71.4672 30.6607 71.9594 31.181C72.4375 31.7013 73.1265 31.9685 73.9984 31.9685C74.6734 31.9685 75.2219 31.8701 75.6719 31.6592C76.1219 31.4482 76.4875 31.181 76.7547 30.8295C77.0359 30.492 77.2328 30.0701 77.3594 29.592C77.4859 29.1138 77.5422 28.5935 77.5422 28.031V19.6639H80.7203V34.0779ZM86.1344 29.4513C86.2328 30.3795 86.5844 31.0263 87.189 31.406C87.8078 31.7717 88.539 31.9685 89.3969 31.9685C89.6922 31.9685 90.0297 31.9404 90.4094 31.8982C90.789 31.856 91.1547 31.7576 91.4781 31.631C91.8156 31.5045 92.0828 31.3076 92.3078 31.0545C92.5187 30.8013 92.6172 30.4779 92.6031 30.0701C92.589 29.6623 92.4343 29.3248 92.1531 29.0717C91.8718 28.8045 91.5203 28.6076 91.0843 28.4389C90.6484 28.2842 90.1562 28.1435 89.5937 28.031C89.0312 27.9185 88.4687 27.792 87.8922 27.6654C87.3015 27.5389 86.725 27.3701 86.1765 27.1873C85.6281 27.0045 85.1359 26.7514 84.7 26.4279C84.264 26.1185 83.9125 25.7107 83.6594 25.2185C83.3922 24.7264 83.2656 24.1217 83.2656 23.3904C83.2656 22.6029 83.4625 21.956 83.8422 21.4217C84.2219 20.8873 84.714 20.4654 85.2906 20.142C85.8812 19.8185 86.5281 19.5935 87.2453 19.4529C87.9625 19.3264 88.6515 19.256 89.2984 19.256C90.0437 19.256 90.7609 19.3404 91.4359 19.4951C92.1109 19.6498 92.7297 19.9029 93.2781 20.2685C93.8265 20.6201 94.2765 21.0842 94.6422 21.6467C95.0078 22.2092 95.2328 22.8982 95.3312 23.6998H92.0125C91.8578 22.9404 91.5203 22.4201 90.9719 22.167C90.4234 21.8998 89.7906 21.7732 89.0875 21.7732C88.8625 21.7732 88.5953 21.7873 88.2859 21.8295C87.9765 21.8717 87.6953 21.942 87.414 22.0404C87.1468 22.1389 86.9219 22.2935 86.725 22.4904C86.5422 22.6873 86.4437 22.9404 86.4437 23.2639C86.4437 23.6576 86.5843 23.967 86.8515 24.206C87.1187 24.4451 87.4703 24.642 87.9062 24.8107C88.3422 24.9654 88.8344 25.106 89.3969 25.2185C89.9594 25.331 90.5359 25.4576 91.1265 25.5842C91.7031 25.7107 92.2656 25.8795 92.8281 26.0623C93.3906 26.2451 93.8828 26.4982 94.3187 26.8217C94.7547 27.1451 95.1062 27.5389 95.3734 28.017C95.6406 28.4951 95.7812 29.0998 95.7812 29.8029C95.7812 30.6607 95.5843 31.3779 95.1906 31.9826C94.7968 32.5732 94.2906 33.0654 93.6718 33.431C93.0531 33.7967 92.35 34.0779 91.5906 34.2467C90.8312 34.4154 90.0719 34.4998 89.3265 34.4998C88.4125 34.4998 87.5687 34.4013 86.7953 34.1904C86.0219 33.9795 85.3469 33.6701 84.7844 33.2623C84.2219 32.8404 83.7719 32.3201 83.4484 31.7013C83.125 31.0826 82.9562 30.3373 82.9281 29.4795H86.1344V29.4513ZM96.625 19.6498H99.0297V15.3186H102.208V19.6498H105.077V22.0264H102.208V29.7326C102.208 30.0701 102.222 30.3513 102.25 30.6045C102.278 30.8435 102.348 31.0545 102.447 31.2232C102.545 31.392 102.7 31.5185 102.911 31.6029C103.122 31.6873 103.389 31.7295 103.755 31.7295C103.98 31.7295 104.205 31.7295 104.43 31.7154C104.655 31.7013 104.88 31.6732 105.105 31.617V34.0779C104.753 34.1201 104.402 34.1482 104.078 34.1904C103.741 34.2326 103.403 34.2467 103.052 34.2467C102.208 34.2467 101.533 34.1623 101.027 34.0076C100.52 33.8529 100.112 33.6138 99.8312 33.3045C99.5359 32.9951 99.3531 32.6154 99.2406 32.1513C99.1422 31.6873 99.0718 31.1529 99.0578 30.5623V22.0545H96.6531V19.6498H96.625ZM107.327 19.6498H110.336V21.6045H110.392C110.842 20.7607 111.461 20.1701 112.262 19.8045C113.064 19.4389 113.922 19.256 114.864 19.256C116.003 19.256 116.987 19.4529 117.831 19.8607C118.675 20.2545 119.378 20.8029 119.941 21.506C120.503 22.2092 120.911 23.0248 121.192 23.9529C121.473 24.881 121.614 25.8795 121.614 26.9342C121.614 27.9045 121.487 28.8467 121.234 29.7467C120.981 30.6607 120.602 31.4623 120.095 32.1654C119.589 32.8685 118.942 33.417 118.155 33.8388C117.367 34.2607 116.453 34.4717 115.384 34.4717C114.92 34.4717 114.456 34.4295 113.992 34.3451C113.528 34.2607 113.078 34.1201 112.656 33.9373C112.234 33.7545 111.827 33.5154 111.475 33.2201C111.109 32.9248 110.814 32.5873 110.561 32.2076H110.505V39.4076H107.327V19.6498ZM118.436 26.8779C118.436 26.231 118.352 25.5982 118.183 24.9795C118.014 24.3607 117.761 23.8264 117.423 23.3482C117.086 22.8701 116.664 22.4904 116.172 22.2092C115.666 21.9279 115.089 21.7732 114.442 21.7732C113.106 21.7732 112.094 22.2373 111.419 23.1654C110.744 24.0935 110.406 25.331 110.406 26.8779C110.406 27.6092 110.491 28.2842 110.673 28.9029C110.856 29.5217 111.109 30.056 111.475 30.506C111.827 30.956 112.248 31.3076 112.741 31.5607C113.233 31.8279 113.809 31.9545 114.456 31.9545C115.187 31.9545 115.792 31.7998 116.298 31.5045C116.805 31.2092 117.212 30.8154 117.536 30.3513C117.859 29.8732 118.098 29.3389 118.239 28.7342C118.366 28.1295 118.436 27.5107 118.436 26.8779ZM124.047 14.1514H127.225V17.1607H124.047V14.1514ZM124.047 19.6498H127.225V34.0779H124.047V19.6498ZM130.066 14.1514H133.244V34.0779H130.066V14.1514ZM142.989 34.4717C141.836 34.4717 140.809 34.2748 139.909 33.8951C139.009 33.5154 138.25 32.981 137.617 32.3201C136.998 31.6451 136.52 30.8435 136.197 29.9154C135.873 28.9873 135.705 27.9607 135.705 26.8498C135.705 25.7529 135.873 24.7404 136.197 23.8123C136.52 22.8842 136.998 22.0826 137.617 21.4076C138.236 20.7326 139.009 20.2123 139.909 19.8326C140.809 19.4529 141.836 19.256 142.989 19.256C144.142 19.256 145.169 19.4529 146.069 19.8326C146.969 20.2123 147.728 20.7467 148.361 21.4076C148.98 22.0826 149.458 22.8842 149.781 23.8123C150.105 24.7404 150.273 25.7529 150.273 26.8498C150.273 27.9607 150.105 28.9873 149.781 29.9154C149.458 30.8435 148.98 31.6451 148.361 32.3201C147.742 32.9951 146.969 33.5154 146.069 33.8951C145.169 34.2748 144.142 34.4717 142.989 34.4717ZM142.989 31.9545C143.692 31.9545 144.311 31.7998 144.831 31.5045C145.352 31.2092 145.773 30.8154 146.111 30.3373C146.448 29.8592 146.687 29.3107 146.856 28.706C147.011 28.1014 147.095 27.4826 147.095 26.8498C147.095 26.231 147.011 25.6264 146.856 25.0076C146.702 24.3889 146.448 23.8545 146.111 23.3764C145.773 22.8982 145.352 22.5185 144.831 22.2232C144.311 21.9279 143.692 21.7732 142.989 21.7732C142.286 21.7732 141.667 21.9279 141.147 22.2232C140.627 22.5185 140.205 22.9123 139.867 23.3764C139.53 23.8545 139.291 24.3889 139.122 25.0076C138.967 25.6264 138.883 26.231 138.883 26.8498C138.883 27.4826 138.967 28.1014 139.122 28.706C139.277 29.3107 139.53 29.8592 139.867 30.3373C140.205 30.8154 140.627 31.2092 141.147 31.5045C141.667 31.8138 142.286 31.9545 142.989 31.9545ZM151.202 19.6498H153.606V15.3186H156.784V19.6498H159.653V22.0264H156.784V29.7326C156.784 30.0701 156.798 30.3513 156.826 30.6045C156.855 30.8435 156.925 31.0545 157.023 31.2232C157.122 31.392 157.277 31.5185 157.487 31.6029C157.698 31.6873 157.966 31.7295 158.331 31.7295C158.556 31.7295 158.781 31.7295 159.006 31.7154C159.231 31.7013 159.456 31.6732 159.681 31.617V34.0779C159.33 34.1201 158.978 34.1482 158.655 34.1904C158.317 34.2326 157.98 34.2467 157.628 34.2467C156.784 34.2467 156.109 34.1623 155.603 34.0076C155.097 33.8529 154.689 33.6138 154.408 33.3045C154.112 32.9951 153.93 32.6154 153.817 32.1513C153.719 31.6873 153.648 31.1529 153.634 30.5623V22.0545H151.23V19.6498H151.202Z" fill="#050505"/>
<path d="M38.5031 14.1513H23.9344L19.4344 0.285645L14.9203 14.1513L0.351562 14.1372L12.15 22.7153L7.63593 36.5669L19.4344 28.0028L31.2187 36.5669L26.7187 22.7153L38.5031 14.1513Z" fill="#00B67A"/>
<path d="M27.7305 25.8513L26.718 22.7153L19.4336 28.0028L27.7305 25.8513Z" fill="#005128"/>
</g>
<defs>
<clipPath id="clip0_431_3370">
<rect width="159.3" height="39.1218" fill="white" transform="translate(0.351562 0.285645)"/>
</clipPath>
</defs>
</svg>
