<svg width="25" height="24" viewBox="0 0 25 24" fill="none" xmlns="http://www.w3.org/2000/svg">
<path d="M15.6993 10.67C20.7676 10.8314 24.4883 11.3657 24.4883 12C24.4883 12.6343 20.7676 13.1686 15.6993 13.33C19.1689 17.028 21.422 20.0368 20.9736 20.4853C20.5251 20.9338 17.5163 18.6806 13.8183 15.211C13.6569 20.2793 13.1225 24 12.4883 24C11.854 24 11.3197 20.2793 11.1582 15.211C7.46025 18.6806 4.45148 20.9338 4.003 20.4853C3.55451 20.0368 5.80763 17.028 9.27727 13.33C4.20899 13.1686 0.488281 12.6343 0.488281 12C0.488281 11.3657 4.20899 10.8314 9.27727 10.67C5.80763 6.97197 3.55451 3.96321 4.00299 3.51472C4.45148 3.06623 7.46025 5.31936 11.1582 8.789C11.3197 3.72072 11.854 0 12.4883 0C13.1225 0 13.6569 3.72071 13.8183 8.78899C17.5163 5.31935 20.5251 3.06623 20.9736 3.51471C21.422 3.9632 19.1689 6.97196 15.6993 10.67Z" fill="#2F2965"/>
</svg>
