<svg width="24" height="24" viewBox="0 0 24 24" fill="none" xmlns="http://www.w3.org/2000/svg">
<path d="M15.211 10.67C20.2793 10.8314 24 11.3657 24 12C24 12.6343 20.2793 13.1686 15.211 13.33C18.6806 17.028 20.9338 20.0368 20.4853 20.4853C20.0368 20.9338 17.028 18.6806 13.33 15.211C13.1686 20.2793 12.6343 24 12 24C11.3657 24 10.8314 20.2793 10.67 15.211C6.97197 18.6806 3.9632 20.9338 3.51472 20.4853C3.06623 20.0368 5.31935 17.028 8.78899 13.33C3.72071 13.1686 0 12.6343 0 12C0 11.3657 3.72071 10.8314 8.78899 10.67C5.31935 6.97197 3.06623 3.96321 3.51471 3.51472C3.9632 3.06623 6.97196 5.31936 10.67 8.789C10.8314 3.72072 11.3657 0 12 0C12.6343 0 13.1686 3.72071 13.33 8.78899C17.028 5.31935 20.0368 3.06623 20.4853 3.51471C20.9338 3.9632 18.6806 6.97196 15.211 10.67Z" fill="#2F2965"/>
</svg>
