<svg width="36" height="36" viewBox="0 0 36 36" fill="none" xmlns="http://www.w3.org/2000/svg">
<path d="M22.5161 0.5C22.2045 0.5 21.9516 0.752903 21.9516 1.06452V12.3548C21.9516 12.6665 22.2045 12.9194 22.5161 12.9194H25.9032L25.3387 16.3065L30.4194 12.9194H34.9355C35.2471 12.9194 35.5 12.6665 35.5 12.3548V1.06452C35.5 0.752903 35.2471 0.5 34.9355 0.5H22.5161ZM28.7258 2.19575C29.8824 2.19575 31.0385 2.63627 31.9189 3.51663C33.679 5.27736 33.679 8.142 31.9189 9.90272C31.0382 10.7834 29.8825 11.2236 28.7258 11.2236C27.5691 11.2236 26.4128 10.7834 25.5328 9.90272C23.7726 8.142 23.7726 5.27736 25.5328 3.51663C26.4131 2.63627 27.5693 2.19575 28.7258 2.19575ZM28.7258 3.32479C28.0377 3.32479 27.3541 3.53997 26.7698 3.95546L28.7258 5.91142L30.6818 3.95546C30.0975 3.53997 29.4134 3.32479 28.7258 3.32479ZM25.9716 4.75372C25.1412 5.92283 25.1412 7.49652 25.9716 8.66564L27.9275 6.70968L25.9716 4.75372ZM31.48 4.75372L29.5241 6.70968L31.48 8.66564C32.3104 7.49652 32.3104 5.92283 31.48 4.75372ZM28.7258 7.50794L26.7698 9.4639C27.9395 10.2943 29.5127 10.2937 30.6818 9.4639L28.7258 7.50794ZM12.3548 11.7903C5.81831 11.7903 0.5 17.1086 0.5 23.6452C0.5 30.1817 5.81831 35.5 12.3548 35.5C18.8914 35.5 24.2097 30.1817 24.2097 23.6452C24.2097 17.1086 18.8914 11.7903 12.3548 11.7903ZM12.3548 12.9194C18.2693 12.9194 23.0806 17.7307 23.0806 23.6452C23.0806 25.7666 22.4529 27.7407 21.386 29.4072L21.3805 21.9516L16.871 21.956L16.8776 31.5484H15.7497L15.7419 19.118L14.6118 19.1191V17.4355L12.9171 16.871L12.916 15.1774C12.916 14.8658 12.6631 14.6129 12.3515 14.6129C12.0399 14.6129 11.787 14.8658 11.787 15.1774L11.7881 16.871L10.0957 17.4355L10.0968 19.1213L8.96774 19.1224L8.97546 31.5484H7.83871L7.8365 20.7697L5.57954 19.1301L3.32258 20.7697L3.32809 29.416C2.25777 27.7484 1.62903 25.7706 1.62903 23.6452C1.62903 17.7307 6.4404 12.9194 12.3548 12.9194ZM14.0506 21.3772V22.5062L10.6635 22.5084V21.3794L14.0506 21.3772ZM4.45161 23.5922H6.70747V24.7213H4.45161V23.5922ZM18 23.5955H20.2581V24.7246H18V23.5955ZM14.0517 23.6352V24.7643L10.6646 24.7665V23.6374L14.0517 23.6352ZM4.45161 25.8503H6.70747V26.9793H4.45161V25.8503ZM18 25.8536H20.2581V26.9826H18V25.8536ZM14.0528 25.8933V27.0223L10.6657 27.0245V25.8955L14.0528 25.8933ZM4.45161 28.1084H6.70747V29.2374H4.45161V28.1084ZM13.4905 29.2804L13.4916 31.5484H11.2335L11.2324 29.2826L13.4905 29.2804ZM6.59391 32.6774H18.1158C16.4499 33.7444 14.4757 34.371 12.3548 34.371C10.234 34.371 8.26036 33.7444 6.59391 32.6774Z" fill="#E4AC5D"/>
</svg>
